<svg width="100" height="100" viewBox="0 0 100 100" fill="none" xmlns="http://www.w3.org/2000/svg">
<g clip-path="url(#clip0_720_3435)">
<path fill-rule="evenodd" clip-rule="evenodd" d="M2.601 84.9322L30.611 56.9223L43.0457 69.3566L15.0356 97.3668C11.4914 100.911 5.85764 100.623 2.601 97.3668C-0.827124 93.9387 -0.827124 88.3603 2.601 84.9322ZM79.8637 32.5389L95.7526 16.6502L99.8977 20.7953L79.1731 41.5197C76.6418 44.0534 73.2688 45.5703 69.6936 45.7828C68.7873 45.8369 67.8955 46.0422 67.0475 46.3834L53.5848 32.9207C53.9256 32.0727 54.1311 31.1811 54.1852 30.2746C54.398 26.6995 55.9149 23.3266 58.4485 20.7951L79.1731 0.0705078L83.3178 4.21523L67.4289 20.1039L71.5739 24.2488L87.4625 8.36016L91.6074 12.5051L75.7186 28.3939L79.8637 32.5389Z" fill="white"/>
<path d="M97.3989 85.0246L12.3744 0H8.79417L8.06311 1.85762C6.13362 6.76074 5.3092 11.7756 5.67932 16.3594C6.1012 21.5844 8.08616 26.108 11.4199 29.4418L47.1836 65.2055L51.9008 60.4883L84.9643 97.4596C88.2533 100.749 93.9145 100.944 97.3989 97.4596C100.827 94.0311 100.827 88.4529 97.3989 85.0246Z" fill="white"/>
</g>
<defs>
<clipPath id="clip0_720_3435">
<rect width="100" height="100" fill="white"/>
</clipPath>
</defs>
</svg>
