<svg width="100" height="100" viewBox="0 0 100 100" fill="none" xmlns="http://www.w3.org/2000/svg">
<g clip-path="url(#clip0_720_3457)">
<path fill-rule="evenodd" clip-rule="evenodd" d="M35.9054 89.9587C35.2439 90.0002 34.0262 90.0832 34.0262 90.0832V63.1064H3.95775V94.4734C2.94001 94.7083 1.92453 94.9529 0.911449 95.2073L0 95.4356L0.454785 97.2656L1.36623 97.0373C31.2956 89.5267 68.7044 89.5267 98.6338 97.0373L99.5452 97.2656L100 95.4356L99.0885 95.2073C98.0755 94.9529 97.06 94.7083 96.0422 94.4734V63.1064H65.9738V90.0832C65.9738 90.0832 64.7542 89.9984 64.0946 89.9587V55.5599H35.9054V89.9587ZM58.4567 89.6776V66.8796H41.5433V89.6776C47.1698 89.4682 52.8302 89.4682 58.4567 89.6776ZM56.5775 68.7663V87.6325H43.4225V68.7663H56.5775ZM17.1127 78.1994V68.7663H7.7163V78.1994H17.1127ZM30.2676 78.1994V68.7663H20.8712V78.1994H30.2676ZM79.1288 78.1994V68.7663H69.7324V78.1994H79.1288ZM92.2837 78.1994V68.7663H82.8873V78.1994H92.2837ZM77.2495 70.6529V76.3128H71.6117V70.6529H77.2495ZM90.4044 70.6529V76.3128H84.7666V70.6529H90.4044ZM28.3883 70.6529V76.3128H22.7505V70.6529H28.3883ZM15.2334 70.6529V76.3128H9.59558V70.6529H15.2334ZM32.1469 19.714H26.5091V2.73438H73.4909V19.714H67.8531V34.807H92.5017L99.517 61.2198H65.9738V55.5599H72.3765L59.3156 34.807H65.9738V19.714H34.0262V34.807H41.2689L27.5784 55.5599H34.0262V61.2198H0.482974L7.49831 34.807H32.1469V19.714ZM68.9675 53.6733H31.0776L50.4661 24.2796L68.9675 53.6733ZM43.4225 15.9408V8.97722L50 12.2788L56.5775 8.97722V15.9408H58.4567V5.92466L50 10.1696L41.5433 5.92466V15.9408H43.4225Z" fill="white"/>
</g>
<defs>
<clipPath id="clip0_720_3457">
<rect width="100" height="100" fill="white"/>
</clipPath>
</defs>
</svg>
