<svg width="101" height="100" viewBox="0 0 101 100" fill="none" xmlns="http://www.w3.org/2000/svg">
<path fill-rule="evenodd" clip-rule="evenodd" d="M95.4583 87.4999V29.1666C95.4583 25.1666 92.1667 21.8749 88.1667 21.8749H80.875V94.7916H88.1667C92.1667 94.7916 95.4583 91.4999 95.4583 87.4999ZM5.875 29.1666C5.875 25.1666 9.16667 21.8749 13.1667 21.8749H20.4583V94.7916H13.1667C9.16667 94.7916 5.875 91.4999 5.875 87.4999V29.1666ZM55.875 94.7916V70.8333C55.875 70.2499 55.4167 69.7916 54.8333 69.7916H46.5C45.9167 69.7916 45.4583 70.2499 45.4583 70.8333V94.7916H55.875ZM74.625 91.6666V13.5416C74.625 8.95825 70.875 5.20825 66.2917 5.20825H35.0417C30.4583 5.20825 26.7083 8.95825 26.7083 13.5416V91.6666C26.7083 93.3749 28.125 94.7916 29.8333 94.7916H39.2083V70.8333C39.2083 66.7916 42.4583 63.5416 46.5 63.5416H54.8333C58.875 63.5416 62.125 66.7916 62.125 70.8333V94.7916H71.5C73.2083 94.7916 74.625 93.3749 74.625 91.6666ZM38.1667 27.5001C38.1667 36.2563 46.2667 41.4224 49.8917 42.6608C50.3167 42.8109 51.0167 42.8109 51.4417 42.6608C55.0667 41.4224 63.1667 36.2563 63.1667 27.5001C63.1667 23.6349 60.0542 20.5077 56.2167 20.5077C53.9542 20.5077 51.9292 21.6085 50.6667 23.3097C49.4042 21.6085 47.3917 20.5077 45.1167 20.5077C41.2792 20.5077 38.1667 23.6349 38.1667 27.5001Z" fill="white"/>
</svg>
