<svg width="11" height="10" viewBox="0 0 11 10" fill="none" xmlns="http://www.w3.org/2000/svg">
<path d="M10.6042 4.51162L8.71682 6.43309L9.16306 9.14683C9.23516 9.58941 8.90949 9.99829 8.4727 9.99829L8.4662 9.9983C8.46301 9.9983 8.45988 9.99831 8.4568 9.99833C8.4361 9.99839 8.41792 9.99845 8.39981 9.99732C8.26933 9.98915 8.14242 9.91898 7.10095 9.34305C6.77279 9.16158 6.35384 8.9299 5.81538 8.63414L3.48442 9.91451C2.97255 10.1957 2.37074 9.74258 2.46769 9.14683L2.91393 6.43309L1.02659 4.51162C0.611151 4.08908 0.843897 3.35637 1.41509 3.2695L4.02079 2.87427L5.18714 0.406412C5.44351 -0.135061 6.18689 -0.13588 6.44362 0.406412L7.60997 2.87427L10.2157 3.2695C10.7879 3.35655 11.0187 4.08999 10.6042 4.51162Z" fill="white"/>
</svg>
