<svg width="101" height="100" viewBox="0 0 101 100" fill="none" xmlns="http://www.w3.org/2000/svg">
<path d="M46.4999 100H54.8334C55.2754 100 55.6994 99.8244 56.0119 99.5118C56.3245 99.1993 56.5001 98.7753 56.5001 98.3333V82.7081C56.5001 82.266 56.3245 81.8421 56.0119 81.5295C55.6994 81.217 55.2754 81.0414 54.8334 81.0414H46.4999C46.0579 81.0414 45.634 81.217 45.3214 81.5295C45.0088 81.8421 44.8332 82.266 44.8332 82.7081V98.3333C44.8332 98.7753 45.0088 99.1993 45.3214 99.5118C45.634 99.8244 46.0579 100 46.4999 100Z" fill="white"/>
<path d="M89.3422 26.0366L89.5391 27.1845C89.7143 28.2066 88.9241 29.1329 87.8962 29.1329C87.4613 29.1329 87.2291 29.0084 86.5495 28.6439C86.4155 28.572 86.264 28.4908 86.0901 28.3994C85.978 28.4583 85.8672 28.5192 85.7573 28.5797C84.9407 29.0287 84.1768 29.4488 83.304 28.8146C82.4308 28.1804 82.5932 27.3301 82.7687 26.4112C82.7923 26.2875 82.8162 26.1625 82.8378 26.0366L82.0038 25.2237C81.0161 24.2607 81.5634 22.5791 82.9276 22.3807L84.0801 22.2132C84.1358 22.1003 84.1902 21.9847 84.2432 21.872C84.64 21.0287 85.0112 20.2399 86.0901 20.2399C87.1692 20.2399 87.5371 21.0221 87.9352 21.8686C87.9889 21.9829 88.0432 22.0983 88.0999 22.2132C88.2253 22.2315 88.3508 22.2473 88.4752 22.263C89.3996 22.3798 90.2644 22.489 90.5979 23.5151C90.9314 24.5413 90.3008 25.1333 89.619 25.7734C89.527 25.8599 89.4339 25.9472 89.3422 26.0366Z" fill="white"/>
<path d="M74.7587 17.7031L74.9556 18.8511C75.1308 19.8732 74.3406 20.7994 73.3126 20.7994C72.8778 20.7994 72.6455 20.6749 71.966 20.3105C71.8319 20.2386 71.6804 20.1574 71.5065 20.0659C71.3944 20.1249 71.2836 20.1858 71.1738 20.2462C70.3572 20.6953 69.5933 21.1154 68.7205 20.4811C67.8473 19.8469 68.0095 18.9973 68.185 18.0784C68.2087 17.9545 68.2326 17.8293 68.2542 17.7031L67.4202 16.8902C66.4325 15.9273 66.9798 14.2456 68.344 14.0473L69.4965 13.8798C69.5525 13.7664 69.6064 13.6518 69.6597 13.5385C70.0564 12.6953 70.4276 11.9064 71.5065 11.9064C72.5856 11.9064 72.9535 12.6886 73.3516 13.5351C73.4054 13.6494 73.4597 13.7649 73.5164 13.8798C73.6418 13.898 73.7672 13.9138 73.8916 13.9296C74.816 14.0463 75.6808 14.1555 76.0143 15.1817C76.3478 16.2079 75.7171 16.8001 75.0353 17.4401C74.9433 17.5265 74.8503 17.6138 74.7587 17.7031Z" fill="white"/>
<path d="M57.5753 14.7175L62.0691 10.3216C63.0562 9.35699 62.5066 7.67905 61.1441 7.47988L54.9398 6.5757L52.1627 0.929779C51.5515 -0.310864 49.7814 -0.308989 49.171 0.929779L46.3939 6.5757L40.1896 7.47988C38.8296 7.67863 38.2754 9.3549 39.2646 10.3216L43.7584 14.7175L42.6959 20.9259C42.4651 22.2888 43.898 23.3255 45.1168 22.6822L50.6669 19.753C51.949 20.4296 52.9465 20.9596 53.7279 21.3748C56.2076 22.6924 56.5098 22.8529 56.8205 22.8716C56.8636 22.8742 56.9069 22.8741 56.9562 22.8739L56.9786 22.8739L56.994 22.8739C58.0341 22.8739 58.8095 21.9384 58.6378 20.9259L57.5753 14.7175Z" fill="white"/>
<path d="M33.0791 17.7031L33.276 18.8511C33.4514 19.8732 32.661 20.7994 31.6326 20.7994C31.1978 20.7994 30.9656 20.6749 30.286 20.3105C30.152 20.2386 30.0005 20.1574 29.8266 20.0659L28.7959 20.608C27.5747 21.2499 26.1446 20.2096 26.3776 18.8511L26.5744 17.7031C26.4837 17.6147 26.3915 17.5281 26.3001 17.4423C25.6208 16.8045 24.9853 16.2078 25.3188 15.1817C25.6521 14.1553 26.5102 14.0471 27.4379 13.93C27.5633 13.9142 27.69 13.8982 27.8167 13.8798L28.3322 12.8354C28.9428 11.5983 30.7114 11.5991 31.3214 12.8354L31.8368 13.8798C31.9622 13.898 32.0877 13.9138 32.212 13.9296C33.1365 14.0463 34.0013 14.1555 34.3348 15.1817C34.6683 16.2079 34.0377 16.7999 33.3559 17.44C33.2638 17.5264 33.1708 17.6138 33.0791 17.7031Z" fill="white"/>
<path d="M18.4956 26.0366L18.6924 27.1845C18.8679 28.2066 18.0774 29.1329 17.0491 29.1329C16.5285 29.1329 16.2982 28.9544 15.243 28.3994L14.2124 28.9414C12.9911 29.5833 11.5611 28.5431 11.794 27.1845L11.9909 26.0366C11.2259 25.2908 10.3569 24.6793 10.7352 23.5151C11.1136 22.3501 12.1682 22.368 13.2332 22.2132L13.7486 21.1688C14.3593 19.9317 16.1278 19.9326 16.7378 21.1688L17.2533 22.2132C18.3106 22.367 19.3729 22.3509 19.7512 23.5151C20.1298 24.6799 19.2662 25.2853 18.4956 26.0366Z" fill="white"/>
<path fill-rule="evenodd" clip-rule="evenodd" d="M71.917 36.2491V98.3333C71.917 98.7753 71.7414 99.1993 71.4288 99.5118C71.1162 99.8244 70.6923 100 70.2503 100H61.5002C61.0581 100 60.6342 99.8244 60.3216 99.5118C60.0091 99.1993 59.8335 98.7753 59.8335 98.3333V79.3747C59.8335 78.9327 59.6579 78.5087 59.3453 78.1962C59.0327 77.8836 58.6088 77.708 58.1668 77.708H43.1666C42.7245 77.708 42.3006 77.8836 41.988 78.1962C41.6755 78.5087 41.4999 78.9327 41.4999 79.3747V98.3333C41.4999 98.7753 41.3243 99.1993 41.0117 99.5118C40.6991 99.8244 40.2752 100 39.8332 100H31.083C30.641 100 30.2171 99.8244 29.9045 99.5118C29.5919 99.1993 29.4164 98.7753 29.4164 98.3333V36.2491C29.4164 32.5671 32.4012 29.5823 36.0831 29.5823H65.2502C68.9324 29.5823 71.917 32.5671 71.917 36.2491ZM61.4287 46.9457C61.7412 47.2583 61.9168 47.6822 61.9168 48.1242C61.9168 48.5663 61.7412 48.9902 61.4287 49.3028C61.1161 49.6153 60.6922 49.7909 60.2501 49.7909H41.0832C40.6412 49.7909 40.2172 49.6153 39.9047 49.3028C39.5921 48.9902 39.4165 48.5663 39.4165 48.1242C39.4165 47.6822 39.5921 47.2583 39.9047 46.9457C40.2172 46.6331 40.6412 46.4575 41.0832 46.4575H60.2501C60.6922 46.4575 61.1161 46.6331 61.4287 46.9457ZM59.0001 64.1661C59.0001 63.7241 58.8245 63.3002 58.512 62.9876C58.1994 62.675 57.7755 62.4994 57.3334 62.4994H43.9999C43.5579 62.4994 43.1339 62.675 42.8214 62.9876C42.5088 63.3002 42.3332 63.7241 42.3332 64.1661C42.3332 64.6082 42.5088 65.0321 42.8214 65.3447C43.1339 65.6572 43.5579 65.8328 43.9999 65.8328H57.3334C57.7755 65.8328 58.1994 65.6572 58.512 65.3447C58.8245 65.0321 59.0001 64.6082 59.0001 64.1661Z" fill="white"/>
<path fill-rule="evenodd" clip-rule="evenodd" d="M92.3339 93.3332V59.9994C92.3339 56.3175 89.3493 53.3326 85.6672 53.3326H76.917C75.9966 53.3326 75.2504 54.0806 75.2504 55.001C75.251 65.6834 75.2577 73.7744 75.2628 79.914V79.9404L75.2629 79.9684C75.2727 91.8388 75.2765 96.3942 75.2185 98.2856C75.1897 99.2243 75.9454 100 76.8845 100H85.6672C89.3491 100 92.3339 97.0152 92.3339 93.3332ZM84.2088 69.9995C84.2088 69.5575 84.0332 69.1336 83.7207 68.821C83.4081 68.5084 82.9842 68.3329 82.5421 68.3329C82.1001 68.3329 81.6762 68.5084 81.3636 68.821C81.051 69.1336 80.8754 69.5575 80.8754 69.9995V77.083C80.8754 77.525 81.051 77.9489 81.3636 78.2615C81.6762 78.5741 82.1001 78.7497 82.5421 78.7497C82.9842 78.7497 83.4081 78.5741 83.7207 78.2615C84.0332 77.9489 84.2088 77.525 84.2088 77.083V69.9995Z" fill="white"/>
<path fill-rule="evenodd" clip-rule="evenodd" d="M24.4502 100C25.3896 100 26.1448 99.2246 26.1163 98.2858C26.058 96.3743 26.0617 91.7472 26.0712 79.6401C26.076 73.5337 26.0823 65.5244 26.083 55.001C26.083 54.0806 25.3367 53.3326 24.4163 53.3326H15.6662C11.9842 53.3326 8.99939 56.3175 8.99939 59.9994V93.3332C8.99939 97.0152 11.9842 100 15.6662 100H24.4502ZM20.4579 69.9995C20.4579 69.5575 20.2823 69.1336 19.9697 68.821C19.6572 68.5084 19.2332 68.3329 18.7912 68.3329C18.3492 68.3329 17.9252 68.5084 17.6127 68.821C17.3001 69.1336 17.1245 69.5575 17.1245 69.9995V77.083C17.1245 77.525 17.3001 77.9489 17.6127 78.2615C17.9252 78.5741 18.3492 78.7497 18.7912 78.7497C19.2332 78.7497 19.6572 78.5741 19.9697 78.2615C20.2823 77.9489 20.4579 77.525 20.4579 77.083V69.9995Z" fill="white"/>
</svg>
