<svg width="101" height="100" viewBox="0 0 101 100" fill="none" xmlns="http://www.w3.org/2000/svg">
<g clip-path="url(#clip0_720_3464)">
<path fill-rule="evenodd" clip-rule="evenodd" d="M34.0063 14.3026L66.9999 23.1121C67.1145 23.1121 67.2288 23.097 67.3395 23.0673L98.6813 14.6548C99.5149 14.4312 100.333 15.0602 100.333 15.9245V75.8328C100.333 76.1221 100.238 76.4034 100.062 76.633C99.8862 76.8626 99.6396 77.0276 99.3606 77.1025L67.3395 85.6974C67.2282 85.7273 67.1141 85.7422 66.9999 85.7422L66.9999 85.742C66.8857 85.742 66.7717 85.7271 66.6604 85.6972L34.0063 76.9325C33.895 76.9026 33.7809 76.8877 33.6667 76.8877C33.552 76.8877 33.4378 76.9027 33.327 76.9325L1.98524 85.345C1.15164 85.5686 0.333282 84.9396 0.333282 84.0753V24.167C0.333262 23.8777 0.428581 23.5964 0.604448 23.3668C0.780316 23.1373 1.0269 22.9723 1.30594 22.8975L33.327 14.3026C33.4382 14.2727 33.5524 14.2578 33.6667 14.2578C33.7814 14.2578 33.8956 14.2728 34.0063 14.3026ZM27.8841 73.3547L6.6411 79.0565C5.99657 79.2294 5.36337 78.7428 5.36337 78.0743V56.4954C5.3634 56.2716 5.43714 56.054 5.57316 55.8765C5.70919 55.6989 5.89989 55.5712 6.11571 55.5133L27.3587 49.8115C28.0032 49.6385 28.6364 50.1251 28.6364 50.7936V72.3727C28.6364 72.8327 28.3278 73.2355 27.8841 73.3547ZM10.3927 73.3479C10.0606 73.3475 9.73793 73.2375 9.4746 73.0348C9.21127 72.8322 9.02198 72.5483 8.93602 72.227C8.88471 72.0352 8.87161 71.8352 8.89747 71.6384C8.92332 71.4416 8.98763 71.2518 9.08671 71.0799C9.18579 70.908 9.31771 70.7573 9.47493 70.6364C9.63215 70.5156 9.81159 70.4269 10.003 70.3756L23.2155 66.8292C23.5995 66.7333 24.0057 66.7923 24.3467 66.9935C24.6877 67.1947 24.9362 67.522 25.0387 67.9049C25.1411 68.2878 25.0893 68.6958 24.8944 69.0408C24.6995 69.3858 24.3772 69.6404 23.9968 69.7497L10.7843 73.2958C10.6566 73.3303 10.5249 73.3478 10.3927 73.3479ZM10.7843 62.0388L23.9968 58.4924C24.381 58.3865 24.7078 58.1327 24.9059 57.7863C25.104 57.4399 25.1572 57.0291 25.0541 56.6435C24.9509 56.258 24.6997 55.9289 24.3553 55.7281C24.0108 55.5274 23.6011 55.4713 23.2155 55.572L10.003 59.1183C9.61879 59.2242 9.29198 59.4781 9.0939 59.8245C8.89582 60.1708 8.84254 60.5816 8.94569 60.9672C9.04883 61.3528 9.30004 61.6819 9.64448 61.8826C9.98893 62.0834 10.3987 62.1395 10.7843 62.0388ZM13.0161 67.0683L21.7651 64.7199C22.1493 64.614 22.4761 64.3602 22.6742 64.0138C22.8723 63.6674 22.9256 63.2566 22.8224 62.871C22.7193 62.4855 22.4681 62.1564 22.1237 61.9556C21.7792 61.7549 21.3695 61.6988 20.9839 61.7995L12.2348 64.1479C11.8506 64.2538 11.5238 64.5076 11.3257 64.854C11.1277 65.2004 11.0744 65.6112 11.1775 65.9968C11.2807 66.3823 11.5319 66.7114 11.8763 66.9122C12.2208 67.1129 12.6305 67.169 13.0161 67.0683ZM72.0302 78.0745V66.0568C72.0302 65.833 72.1039 65.6154 72.24 65.4378C72.376 65.2603 72.5667 65.1326 72.7825 65.0746L94.0257 59.3728C94.6702 59.1999 95.3034 59.6865 95.3034 60.355V72.3725C95.3034 72.5964 95.2296 72.8139 95.0936 72.9915C94.9576 73.1691 94.7669 73.2967 94.551 73.3547L73.3079 79.0565C72.6632 79.2294 72.0302 78.7428 72.0302 78.0745ZM25.5343 30.0169C25.5343 34.7385 19.403 46.8198 16.9999 47.4649C14.5968 48.1099 8.4655 39.32 8.4655 34.5984C8.4655 29.8768 12.2864 25.0238 16.9999 23.7585C21.7134 22.4934 25.5343 25.2953 25.5343 30.0169ZM38.6969 32.0032V53.2109C38.6969 53.4347 38.7707 53.6523 38.9067 53.8299C39.0427 54.0075 39.2334 54.1351 39.4493 54.193L60.6922 59.8948C61.337 60.0678 61.97 59.5812 61.97 58.9127V37.7049C61.9699 37.4811 61.8962 37.2635 61.7602 37.086C61.6242 36.9084 61.4335 36.7807 61.2176 36.7228L39.9747 31.021C39.3299 30.848 38.6969 31.3346 38.6969 32.0032ZM72.0301 48.8352V27.6273C72.0302 27.4034 72.1039 27.1859 72.2399 27.0083C72.376 26.8307 72.5667 26.7031 72.7825 26.6451L94.0256 20.9433C94.6702 20.7704 95.3034 21.257 95.3034 21.9255V43.1334C95.3033 43.3572 95.2296 43.5748 95.0936 43.7524C94.9576 43.93 94.7669 44.0576 94.551 44.1156L73.3079 49.8174C72.6631 49.9903 72.0301 49.5037 72.0301 48.8352ZM71.1111 56.398C71.3745 56.6007 71.6971 56.7107 72.0292 56.711C72.1614 56.711 72.2931 56.6935 72.4208 56.6592L84.0569 53.5359C84.2484 53.4845 84.4278 53.3958 84.585 53.275C84.7422 53.1541 84.8742 53.0034 84.9733 52.8315C85.0724 52.6596 85.1367 52.4698 85.1625 52.2729C85.1884 52.0761 85.1753 51.8761 85.124 51.6843C85.0727 51.4926 84.9842 51.3128 84.8636 51.1553C84.7429 50.9978 84.5925 50.8657 84.4208 50.7664C84.2492 50.6672 84.0597 50.6027 83.8632 50.5768C83.6668 50.5509 83.4671 50.564 83.2757 50.6154L71.6395 53.7387C71.4481 53.7901 71.2687 53.8788 71.1114 53.9996C70.9542 54.1205 70.8223 54.2712 70.7232 54.4431C70.6241 54.615 70.5598 54.8048 70.534 55.0016C70.5081 55.1984 70.5212 55.3984 70.5725 55.5902C70.6585 55.9115 70.8478 56.1954 71.1111 56.398ZM71.1111 61.4368C71.3745 61.6394 71.6971 61.7494 72.0292 61.7498C72.1614 61.7497 72.2931 61.7323 72.4208 61.6979L95.6936 55.4513C96.0779 55.3454 96.4047 55.0915 96.6027 54.7451C96.8008 54.3987 96.8541 53.9879 96.751 53.6024C96.6478 53.2168 96.3966 52.8877 96.0522 52.687C95.7077 52.4862 95.298 52.4301 94.9124 52.5308L71.6395 58.7775C71.4481 58.8289 71.2687 58.9175 71.1114 59.0384C70.9542 59.1592 70.8223 59.3099 70.7232 59.4818C70.6241 59.6538 70.5598 59.8435 70.534 60.0404C70.5081 60.2372 70.5212 60.4372 70.5725 60.6289C70.6585 60.9502 70.8478 61.2341 71.1111 61.4368ZM19.1654 34.1859C20.526 32.6291 20.6644 30.5212 19.4746 29.4777C18.2848 28.4343 16.2173 28.8505 14.8567 30.4074C13.4961 31.9642 13.3577 34.0721 14.5475 35.1156C15.7374 36.159 17.8049 35.7427 19.1654 34.1859ZM49.9426 25.184C50.0704 25.2183 50.202 25.2358 50.3343 25.2359C50.7005 25.2359 51.0542 25.1025 51.3295 24.8605C51.6048 24.6186 51.7829 24.2846 51.8306 23.9209C51.8783 23.5572 51.7923 23.1885 51.5887 22.8836C51.3851 22.5786 51.0777 22.3583 50.7239 22.2636L39.0876 19.1404C38.7029 19.0425 38.2953 19.1004 37.9529 19.3013C37.6105 19.5023 37.3609 19.8303 37.2582 20.2143C37.1555 20.5983 37.2079 21.0074 37.4041 21.3529C37.6002 21.6985 37.9244 21.9528 38.3063 22.0607L49.9426 25.184ZM61.579 33.3461C61.7067 33.3804 61.8383 33.3978 61.9706 33.3979C62.3366 33.3976 62.69 33.264 62.965 33.0221C63.2401 32.7801 63.418 32.4463 63.4656 32.0828C63.5133 31.7193 63.4274 31.3508 63.2241 31.046C63.0207 30.7411 62.7137 30.5207 62.3602 30.4256L39.0874 24.179C38.2821 23.9628 37.4548 24.4415 37.2391 25.248C37.0235 26.0545 37.501 26.8832 38.3061 27.0994L61.579 33.3461ZM49.9426 63.6133C50.0704 63.6477 50.202 63.6651 50.3343 63.6652C50.7005 63.6652 51.0542 63.5318 51.3295 63.2899C51.6048 63.0479 51.7829 62.714 51.8306 62.3502C51.8783 61.9865 51.7923 61.6178 51.5887 61.3129C51.3851 61.008 51.0777 60.7876 50.7239 60.6929L39.0876 57.5697C38.7029 57.4719 38.2953 57.5297 37.9529 57.7307C37.6105 57.9317 37.3609 58.2597 37.2582 58.6436C37.1555 59.0276 37.2079 59.4367 37.4041 59.7823C37.6002 60.1278 37.9244 60.3821 38.3063 60.49L49.9426 63.6133ZM61.579 71.7754C61.7067 71.8097 61.8383 71.8272 61.9706 71.8273C62.3027 71.827 62.6254 71.717 62.8887 71.5144C63.1521 71.3117 63.3414 71.0277 63.4272 70.7064C63.5308 70.3191 63.4766 69.9065 63.2765 69.5593C63.0764 69.2121 62.7468 68.9588 62.3602 68.855L39.0874 62.6083C38.2821 62.3919 37.4548 62.8708 37.2391 63.6773C37.0235 64.4838 37.501 65.3125 38.3061 65.5287L61.579 71.7754Z" fill="white"/>
</g>
<defs>
<clipPath id="clip0_720_3464">
<rect width="100" height="100" fill="white" transform="translate(0.333282)"/>
</clipPath>
</defs>
</svg>
