<svg width="101" height="100" viewBox="0 0 101 100" fill="none" xmlns="http://www.w3.org/2000/svg">
<g clip-path="url(#clip0_720_3442)">
<path fill-rule="evenodd" clip-rule="evenodd" d="M73.6805 30.4838H26.9926C26.9275 31.1276 26.894 31.7736 26.894 32.4203V44.9985H23.5099C21.8944 44.9985 20.5847 46.3081 20.5847 47.9237V57.7881H3.32987C1.71432 57.7881 0.404663 59.0977 0.404663 60.7133V96.9964C0.404663 98.6119 1.71432 99.9216 3.32987 99.9216H37.6578C37.669 99.9217 37.6803 99.9218 37.6915 99.9218C37.7028 99.9218 37.714 99.9217 37.7253 99.9216H49.6082C49.8251 99.9729 50.0512 100 50.2838 100C50.5163 100 50.7425 99.9729 50.9593 99.9216H97.3367C98.9522 99.9216 100.262 98.6119 100.262 96.9964V74.5285L100.262 74.5201L100.262 74.5116V60.7133C100.262 59.0977 98.9522 57.7881 97.3367 57.7881H80.0821V47.9237C80.0821 46.3081 78.7724 44.9985 77.1569 44.9985H73.7802V32.4203C73.7802 31.7735 73.7463 31.1275 73.6805 30.4838ZM26.4351 50.8489H74.2317V94.0712H65.9005V76.5665C65.9005 67.6473 59.8123 59.3503 50.9999 57.3641L50.976 57.3587C50.8451 57.327 50.7107 57.304 50.5736 57.2905C50.3912 57.2724 50.2075 57.2714 50.025 57.2876C49.8716 57.3011 49.7215 57.3264 49.5758 57.3626C40.8107 59.385 34.7663 67.6572 34.7663 76.5443V94.0712H26.4351V74.5243L26.4351 74.5201L26.4351 74.5158V50.8489ZM20.5846 77.4453H6.25508V94.0712H20.5847L20.5846 77.4453ZM94.4115 77.4453H80.0821V94.0712H94.4115V77.4453ZM67.9298 36.3342H32.7444V44.9985H67.9298V36.3342Z" fill="white"/>
<path d="M53.2039 2.92521C53.2039 1.30966 51.8942 0 50.2787 0C48.6631 0 47.3535 1.30966 47.3535 2.92521V6.91336C41.8849 8.92527 37.0796 12.3441 33.5095 16.4473C29.959 20.5278 27.5032 25.4406 26.9926 30.4838H73.6805C73.1635 25.4312 70.6744 20.5156 67.0988 16.4386C63.5036 12.3392 58.6746 8.92342 53.2039 6.91296V2.92521Z" fill="white"/>
</g>
<defs>
<clipPath id="clip0_720_3442">
<rect width="100" height="100" fill="white" transform="translate(0.333282)"/>
</clipPath>
</defs>
</svg>
