<svg width="294" height="294" viewBox="0 0 294 294" fill="none" xmlns="http://www.w3.org/2000/svg">
<rect width="294" height="294" rx="4" fill="white"/>
<rect width="279.3" height="279.3" transform="translate(8.82031 8.81995)" fill="white"/>
<rect width="279.3" height="279.3" transform="translate(8.82031 8.81995)" fill="white"/>
<mask id="mask0_236_3223" style="mask-type:luminance" maskUnits="userSpaceOnUse" x="13" y="13" width="271" height="271">
<path d="M18.1296 97.265C20.7005 97.265 22.7846 95.1808 22.7846 92.61C22.7846 90.0391 20.7005 87.955 18.1296 87.955C15.5587 87.955 13.4746 90.0391 13.4746 92.61C13.4746 95.1808 15.5587 97.265 18.1296 97.265Z" fill="white"/>
<path d="M18.1296 106.575C20.7005 106.575 22.7846 104.491 22.7846 101.92C22.7846 99.3491 20.7005 97.265 18.1296 97.265C15.5587 97.265 13.4746 99.3491 13.4746 101.92C13.4746 104.491 15.5587 106.575 18.1296 106.575Z" fill="white"/>
<path d="M18.1296 115.885C20.7005 115.885 22.7846 113.801 22.7846 111.23C22.7846 108.659 20.7005 106.575 18.1296 106.575C15.5587 106.575 13.4746 108.659 13.4746 111.23C13.4746 113.801 15.5587 115.885 18.1296 115.885Z" fill="white"/>
<path d="M18.1296 125.195C20.7005 125.195 22.7846 123.111 22.7846 120.54C22.7846 117.969 20.7005 115.885 18.1296 115.885C15.5587 115.885 13.4746 117.969 13.4746 120.54C13.4746 123.111 15.5587 125.195 18.1296 125.195Z" fill="white"/>
<path d="M18.1296 143.815C20.7005 143.815 22.7846 141.731 22.7846 139.16C22.7846 136.589 20.7005 134.505 18.1296 134.505C15.5587 134.505 13.4746 136.589 13.4746 139.16C13.4746 141.731 15.5587 143.815 18.1296 143.815Z" fill="white"/>
<path d="M18.1296 181.055C20.7005 181.055 22.7846 178.971 22.7846 176.4C22.7846 173.829 20.7005 171.745 18.1296 171.745C15.5587 171.745 13.4746 173.829 13.4746 176.4C13.4746 178.971 15.5587 181.055 18.1296 181.055Z" fill="white"/>
<path d="M18.1296 190.365C20.7005 190.365 22.7846 188.281 22.7846 185.71C22.7846 183.139 20.7005 181.055 18.1296 181.055C15.5587 181.055 13.4746 183.139 13.4746 185.71C13.4746 188.281 15.5587 190.365 18.1296 190.365Z" fill="white"/>
<path d="M27.4402 106.575C30.011 106.575 32.0952 104.491 32.0952 101.92C32.0952 99.3491 30.011 97.265 27.4402 97.265C24.8693 97.265 22.7852 99.3491 22.7852 101.92C22.7852 104.491 24.8693 106.575 27.4402 106.575Z" fill="white"/>
<path d="M27.4402 115.885C30.011 115.885 32.0952 113.801 32.0952 111.23C32.0952 108.659 30.011 106.575 27.4402 106.575C24.8693 106.575 22.7852 108.659 22.7852 111.23C22.7852 113.801 24.8693 115.885 27.4402 115.885Z" fill="white"/>
<path d="M27.4402 171.745C30.011 171.745 32.0952 169.661 32.0952 167.09C32.0952 164.519 30.011 162.435 27.4402 162.435C24.8693 162.435 22.7852 164.519 22.7852 167.09C22.7852 169.661 24.8693 171.745 27.4402 171.745Z" fill="white"/>
<path d="M27.4402 181.055C30.011 181.055 32.0952 178.971 32.0952 176.4C32.0952 173.829 30.011 171.745 27.4402 171.745C24.8693 171.745 22.7852 173.829 22.7852 176.4C22.7852 178.971 24.8693 181.055 27.4402 181.055Z" fill="white"/>
<path d="M27.4402 190.365C30.011 190.365 32.0952 188.281 32.0952 185.71C32.0952 183.139 30.011 181.055 27.4402 181.055C24.8693 181.055 22.7852 183.139 22.7852 185.71C22.7852 188.281 24.8693 190.365 27.4402 190.365Z" fill="white"/>
<path d="M27.4402 199.675C30.011 199.675 32.0952 197.591 32.0952 195.02C32.0952 192.449 30.011 190.365 27.4402 190.365C24.8693 190.365 22.7852 192.449 22.7852 195.02C22.7852 197.591 24.8693 199.675 27.4402 199.675Z" fill="white"/>
<path d="M36.7487 97.265C39.3196 97.265 41.4037 95.1808 41.4037 92.61C41.4037 90.0391 39.3196 87.955 36.7487 87.955C34.1779 87.955 32.0938 90.0391 32.0938 92.61C32.0938 95.1808 34.1779 97.265 36.7487 97.265Z" fill="white"/>
<path d="M36.7487 115.885C39.3196 115.885 41.4037 113.801 41.4037 111.23C41.4037 108.659 39.3196 106.575 36.7487 106.575C34.1779 106.575 32.0938 108.659 32.0938 111.23C32.0938 113.801 34.1779 115.885 36.7487 115.885Z" fill="white"/>
<path d="M36.7487 134.505C39.3196 134.505 41.4037 132.421 41.4037 129.85C41.4037 127.279 39.3196 125.195 36.7487 125.195C34.1779 125.195 32.0938 127.279 32.0938 129.85C32.0938 132.421 34.1779 134.505 36.7487 134.505Z" fill="white"/>
<path d="M36.7487 162.435C39.3196 162.435 41.4037 160.351 41.4037 157.78C41.4037 155.209 39.3196 153.125 36.7487 153.125C34.1779 153.125 32.0938 155.209 32.0938 157.78C32.0938 160.351 34.1779 162.435 36.7487 162.435Z" fill="white"/>
<path d="M36.7487 181.055C39.3196 181.055 41.4037 178.971 41.4037 176.4C41.4037 173.829 39.3196 171.745 36.7487 171.745C34.1779 171.745 32.0938 173.829 32.0938 176.4C32.0938 178.971 34.1779 181.055 36.7487 181.055Z" fill="white"/>
<path d="M36.7487 199.675C39.3196 199.675 41.4037 197.591 41.4037 195.02C41.4037 192.449 39.3196 190.365 36.7487 190.365C34.1779 190.365 32.0938 192.449 32.0938 195.02C32.0938 197.591 34.1779 199.675 36.7487 199.675Z" fill="white"/>
<path d="M36.7487 208.985C39.3196 208.985 41.4037 206.901 41.4037 204.33C41.4037 201.759 39.3196 199.675 36.7487 199.675C34.1779 199.675 32.0938 201.759 32.0938 204.33C32.0938 206.901 34.1779 208.985 36.7487 208.985Z" fill="white"/>
<path d="M46.0593 97.265C48.6302 97.265 50.7143 95.1808 50.7143 92.61C50.7143 90.0391 48.6302 87.955 46.0593 87.955C43.4884 87.955 41.4043 90.0391 41.4043 92.61C41.4043 95.1808 43.4884 97.265 46.0593 97.265Z" fill="white"/>
<path d="M46.0593 115.885C48.6302 115.885 50.7143 113.801 50.7143 111.23C50.7143 108.659 48.6302 106.575 46.0593 106.575C43.4884 106.575 41.4043 108.659 41.4043 111.23C41.4043 113.801 43.4884 115.885 46.0593 115.885Z" fill="white"/>
<path d="M46.0593 143.815C48.6302 143.815 50.7143 141.731 50.7143 139.16C50.7143 136.589 48.6302 134.505 46.0593 134.505C43.4884 134.505 41.4043 136.589 41.4043 139.16C41.4043 141.731 43.4884 143.815 46.0593 143.815Z" fill="white"/>
<path d="M46.0593 171.745C48.6302 171.745 50.7143 169.661 50.7143 167.09C50.7143 164.519 48.6302 162.435 46.0593 162.435C43.4884 162.435 41.4043 164.519 41.4043 167.09C41.4043 169.661 43.4884 171.745 46.0593 171.745Z" fill="white"/>
<path d="M46.0593 190.365C48.6302 190.365 50.7143 188.281 50.7143 185.71C50.7143 183.139 48.6302 181.055 46.0593 181.055C43.4884 181.055 41.4043 183.139 41.4043 185.71C41.4043 188.281 43.4884 190.365 46.0593 190.365Z" fill="white"/>
<path d="M55.3698 106.575C57.9407 106.575 60.0248 104.491 60.0248 101.92C60.0248 99.3491 57.9407 97.265 55.3698 97.265C52.799 97.265 50.7148 99.3491 50.7148 101.92C50.7148 104.491 52.799 106.575 55.3698 106.575Z" fill="white"/>
<path d="M55.3698 115.885C57.9407 115.885 60.0248 113.801 60.0248 111.23C60.0248 108.659 57.9407 106.575 55.3698 106.575C52.799 106.575 50.7148 108.659 50.7148 111.23C50.7148 113.801 52.799 115.885 55.3698 115.885Z" fill="white"/>
<path d="M55.3698 171.745C57.9407 171.745 60.0248 169.661 60.0248 167.09C60.0248 164.519 57.9407 162.435 55.3698 162.435C52.799 162.435 50.7148 164.519 50.7148 167.09C50.7148 169.661 52.799 171.745 55.3698 171.745Z" fill="white"/>
<path d="M55.3698 208.985C57.9407 208.985 60.0248 206.901 60.0248 204.33C60.0248 201.759 57.9407 199.675 55.3698 199.675C52.799 199.675 50.7148 201.759 50.7148 204.33C50.7148 206.901 52.799 208.985 55.3698 208.985Z" fill="white"/>
<path d="M64.6804 97.265C67.2513 97.265 69.3354 95.1808 69.3354 92.61C69.3354 90.0391 67.2513 87.955 64.6804 87.955C62.1095 87.955 60.0254 90.0391 60.0254 92.61C60.0254 95.1808 62.1095 97.265 64.6804 97.265Z" fill="white"/>
<path d="M64.6804 115.885C67.2513 115.885 69.3354 113.801 69.3354 111.23C69.3354 108.659 67.2513 106.575 64.6804 106.575C62.1095 106.575 60.0254 108.659 60.0254 111.23C60.0254 113.801 62.1095 115.885 64.6804 115.885Z" fill="white"/>
<path d="M64.6804 143.815C67.2513 143.815 69.3354 141.731 69.3354 139.16C69.3354 136.589 67.2513 134.505 64.6804 134.505C62.1095 134.505 60.0254 136.589 60.0254 139.16C60.0254 141.731 62.1095 143.815 64.6804 143.815Z" fill="white"/>
<path d="M64.6804 162.435C67.2513 162.435 69.3354 160.351 69.3354 157.78C69.3354 155.209 67.2513 153.125 64.6804 153.125C62.1095 153.125 60.0254 155.209 60.0254 157.78C60.0254 160.351 62.1095 162.435 64.6804 162.435Z" fill="white"/>
<path d="M64.6804 171.745C67.2513 171.745 69.3354 169.661 69.3354 167.09C69.3354 164.519 67.2513 162.435 64.6804 162.435C62.1095 162.435 60.0254 164.519 60.0254 167.09C60.0254 169.661 62.1095 171.745 64.6804 171.745Z" fill="white"/>
<path d="M64.6804 199.675C67.2513 199.675 69.3354 197.591 69.3354 195.02C69.3354 192.449 67.2513 190.365 64.6804 190.365C62.1095 190.365 60.0254 192.449 60.0254 195.02C60.0254 197.591 62.1095 199.675 64.6804 199.675Z" fill="white"/>
<path d="M73.989 97.265C76.5599 97.265 78.644 95.1808 78.644 92.61C78.644 90.0391 76.5599 87.955 73.989 87.955C71.4181 87.955 69.334 90.0391 69.334 92.61C69.334 95.1808 71.4181 97.265 73.989 97.265Z" fill="white"/>
<path d="M73.989 115.885C76.5599 115.885 78.644 113.801 78.644 111.23C78.644 108.659 76.5599 106.575 73.989 106.575C71.4181 106.575 69.334 108.659 69.334 111.23C69.334 113.801 71.4181 115.885 73.989 115.885Z" fill="white"/>
<path d="M73.989 134.505C76.5599 134.505 78.644 132.421 78.644 129.85C78.644 127.279 76.5599 125.195 73.989 125.195C71.4181 125.195 69.334 127.279 69.334 129.85C69.334 132.421 71.4181 134.505 73.989 134.505Z" fill="white"/>
<path d="M73.989 153.125C76.5599 153.125 78.644 151.041 78.644 148.47C78.644 145.899 76.5599 143.815 73.989 143.815C71.4181 143.815 69.334 145.899 69.334 148.47C69.334 151.041 71.4181 153.125 73.989 153.125Z" fill="white"/>
<path d="M73.989 171.745C76.5599 171.745 78.644 169.661 78.644 167.09C78.644 164.519 76.5599 162.435 73.989 162.435C71.4181 162.435 69.334 164.519 69.334 167.09C69.334 169.661 71.4181 171.745 73.989 171.745Z" fill="white"/>
<path d="M73.989 190.365C76.5599 190.365 78.644 188.281 78.644 185.71C78.644 183.139 76.5599 181.055 73.989 181.055C71.4181 181.055 69.334 183.139 69.334 185.71C69.334 188.281 71.4181 190.365 73.989 190.365Z" fill="white"/>
<path d="M73.989 208.985C76.5599 208.985 78.644 206.901 78.644 204.33C78.644 201.759 76.5599 199.675 73.989 199.675C71.4181 199.675 69.334 201.759 69.334 204.33C69.334 206.901 71.4181 208.985 73.989 208.985Z" fill="white"/>
<path d="M83.2995 97.265C85.8704 97.265 87.9545 95.1808 87.9545 92.61C87.9545 90.0391 85.8704 87.955 83.2995 87.955C80.7286 87.955 78.6445 90.0391 78.6445 92.61C78.6445 95.1808 80.7286 97.265 83.2995 97.265Z" fill="white"/>
<path d="M83.2995 106.575C85.8704 106.575 87.9545 104.491 87.9545 101.92C87.9545 99.3491 85.8704 97.265 83.2995 97.265C80.7286 97.265 78.6445 99.3491 78.6445 101.92C78.6445 104.491 80.7286 106.575 83.2995 106.575Z" fill="white"/>
<path d="M83.2995 115.885C85.8704 115.885 87.9545 113.801 87.9545 111.23C87.9545 108.659 85.8704 106.575 83.2995 106.575C80.7286 106.575 78.6445 108.659 78.6445 111.23C78.6445 113.801 80.7286 115.885 83.2995 115.885Z" fill="white"/>
<path d="M83.2995 134.505C85.8704 134.505 87.9545 132.421 87.9545 129.85C87.9545 127.279 85.8704 125.195 83.2995 125.195C80.7286 125.195 78.6445 127.279 78.6445 129.85C78.6445 132.421 80.7286 134.505 83.2995 134.505Z" fill="white"/>
<path d="M83.2995 181.055C85.8704 181.055 87.9545 178.971 87.9545 176.4C87.9545 173.829 85.8704 171.745 83.2995 171.745C80.7286 171.745 78.6445 173.829 78.6445 176.4C78.6445 178.971 80.7286 181.055 83.2995 181.055Z" fill="white"/>
<path d="M83.2995 190.365C85.8704 190.365 87.9545 188.281 87.9545 185.71C87.9545 183.139 85.8704 181.055 83.2995 181.055C80.7286 181.055 78.6445 183.139 78.6445 185.71C78.6445 188.281 80.7286 190.365 83.2995 190.365Z" fill="white"/>
<path d="M83.2995 208.985C85.8704 208.985 87.9545 206.901 87.9545 204.33C87.9545 201.759 85.8704 199.675 83.2995 199.675C80.7286 199.675 78.6445 201.759 78.6445 204.33C78.6445 206.901 80.7286 208.985 83.2995 208.985Z" fill="white"/>
<path d="M92.6101 32.095C95.181 32.095 97.2651 30.0109 97.2651 27.44C97.2651 24.8691 95.181 22.785 92.6101 22.785C90.0392 22.785 87.9551 24.8691 87.9551 27.44C87.9551 30.0109 90.0392 32.095 92.6101 32.095Z" fill="white"/>
<path d="M92.6101 50.715C95.181 50.715 97.2651 48.6309 97.2651 46.06C97.2651 43.4891 95.181 41.405 92.6101 41.405C90.0392 41.405 87.9551 43.4891 87.9551 46.06C87.9551 48.6309 90.0392 50.715 92.6101 50.715Z" fill="white"/>
<path d="M92.6101 69.335C95.181 69.335 97.2651 67.2509 97.2651 64.68C97.2651 62.1091 95.181 60.025 92.6101 60.025C90.0392 60.025 87.9551 62.1091 87.9551 64.68C87.9551 67.2509 90.0392 69.335 92.6101 69.335Z" fill="white"/>
<path d="M92.6101 78.645C95.181 78.645 97.2651 76.5608 97.2651 73.99C97.2651 71.4191 95.181 69.335 92.6101 69.335C90.0392 69.335 87.9551 71.4191 87.9551 73.99C87.9551 76.5608 90.0392 78.645 92.6101 78.645Z" fill="white"/>
<path d="M92.6101 87.955C95.181 87.955 97.2651 85.8709 97.2651 83.3C97.2651 80.7291 95.181 78.645 92.6101 78.645C90.0392 78.645 87.9551 80.7291 87.9551 83.3C87.9551 85.8709 90.0392 87.955 92.6101 87.955Z" fill="white"/>
<path d="M92.6101 97.265C95.181 97.265 97.2651 95.1808 97.2651 92.61C97.2651 90.0391 95.181 87.955 92.6101 87.955C90.0392 87.955 87.9551 90.0391 87.9551 92.61C87.9551 95.1808 90.0392 97.265 92.6101 97.265Z" fill="white"/>
<path d="M92.6101 125.195C95.181 125.195 97.2651 123.111 97.2651 120.54C97.2651 117.969 95.181 115.885 92.6101 115.885C90.0392 115.885 87.9551 117.969 87.9551 120.54C87.9551 123.111 90.0392 125.195 92.6101 125.195Z" fill="white"/>
<path d="M92.6101 134.505C95.181 134.505 97.2651 132.421 97.2651 129.85C97.2651 127.279 95.181 125.195 92.6101 125.195C90.0392 125.195 87.9551 127.279 87.9551 129.85C87.9551 132.421 90.0392 134.505 92.6101 134.505Z" fill="white"/>
<path d="M92.6101 153.125C95.181 153.125 97.2651 151.041 97.2651 148.47C97.2651 145.899 95.181 143.815 92.6101 143.815C90.0392 143.815 87.9551 145.899 87.9551 148.47C87.9551 151.041 90.0392 153.125 92.6101 153.125Z" fill="white"/>
<path d="M92.6101 171.745C95.181 171.745 97.2651 169.661 97.2651 167.09C97.2651 164.519 95.181 162.435 92.6101 162.435C90.0392 162.435 87.9551 164.519 87.9551 167.09C87.9551 169.661 90.0392 171.745 92.6101 171.745Z" fill="white"/>
<path d="M92.6101 181.055C95.181 181.055 97.2651 178.971 97.2651 176.4C97.2651 173.829 95.181 171.745 92.6101 171.745C90.0392 171.745 87.9551 173.829 87.9551 176.4C87.9551 178.971 90.0392 181.055 92.6101 181.055Z" fill="white"/>
<path d="M92.6101 190.365C95.181 190.365 97.2651 188.281 97.2651 185.71C97.2651 183.139 95.181 181.055 92.6101 181.055C90.0392 181.055 87.9551 183.139 87.9551 185.71C87.9551 188.281 90.0392 190.365 92.6101 190.365Z" fill="white"/>
<path d="M92.6101 218.295C95.181 218.295 97.2651 216.211 97.2651 213.64C97.2651 211.069 95.181 208.985 92.6101 208.985C90.0392 208.985 87.9551 211.069 87.9551 213.64C87.9551 216.211 90.0392 218.295 92.6101 218.295Z" fill="white"/>
<path d="M92.6101 227.605C95.181 227.605 97.2651 225.521 97.2651 222.95C97.2651 220.379 95.181 218.295 92.6101 218.295C90.0392 218.295 87.9551 220.379 87.9551 222.95C87.9551 225.521 90.0392 227.605 92.6101 227.605Z" fill="white"/>
<path d="M92.6101 236.915C95.181 236.915 97.2651 234.831 97.2651 232.26C97.2651 229.689 95.181 227.605 92.6101 227.605C90.0392 227.605 87.9551 229.689 87.9551 232.26C87.9551 234.831 90.0392 236.915 92.6101 236.915Z" fill="white"/>
<path d="M92.6101 255.535C95.181 255.535 97.2651 253.451 97.2651 250.88C97.2651 248.309 95.181 246.225 92.6101 246.225C90.0392 246.225 87.9551 248.309 87.9551 250.88C87.9551 253.451 90.0392 255.535 92.6101 255.535Z" fill="white"/>
<path d="M92.6101 264.845C95.181 264.845 97.2651 262.761 97.2651 260.19C97.2651 257.619 95.181 255.535 92.6101 255.535C90.0392 255.535 87.9551 257.619 87.9551 260.19C87.9551 262.761 90.0392 264.845 92.6101 264.845Z" fill="white"/>
<path d="M92.6101 283.465C95.181 283.465 97.2651 281.381 97.2651 278.81C97.2651 276.239 95.181 274.155 92.6101 274.155C90.0392 274.155 87.9551 276.239 87.9551 278.81C87.9551 281.381 90.0392 283.465 92.6101 283.465Z" fill="white"/>
<path d="M101.919 22.785C104.49 22.785 106.574 20.7009 106.574 18.13C106.574 15.5591 104.49 13.475 101.919 13.475C99.3478 13.475 97.2637 15.5591 97.2637 18.13C97.2637 20.7009 99.3478 22.785 101.919 22.785Z" fill="white"/>
<path d="M101.919 32.095C104.49 32.095 106.574 30.0109 106.574 27.44C106.574 24.8691 104.49 22.785 101.919 22.785C99.3478 22.785 97.2637 24.8691 97.2637 27.44C97.2637 30.0109 99.3478 32.095 101.919 32.095Z" fill="white"/>
<path d="M101.919 41.405C104.49 41.405 106.574 39.3209 106.574 36.75C106.574 34.1791 104.49 32.095 101.919 32.095C99.3478 32.095 97.2637 34.1791 97.2637 36.75C97.2637 39.3209 99.3478 41.405 101.919 41.405Z" fill="white"/>
<path d="M101.919 50.715C104.49 50.715 106.574 48.6309 106.574 46.06C106.574 43.4891 104.49 41.405 101.919 41.405C99.3478 41.405 97.2637 43.4891 97.2637 46.06C97.2637 48.6309 99.3478 50.715 101.919 50.715Z" fill="white"/>
<path d="M101.919 60.025C104.49 60.025 106.574 57.9409 106.574 55.37C106.574 52.7991 104.49 50.715 101.919 50.715C99.3478 50.715 97.2637 52.7991 97.2637 55.37C97.2637 57.9409 99.3478 60.025 101.919 60.025Z" fill="white"/>
<path d="M101.919 97.265C104.49 97.265 106.574 95.1808 106.574 92.61C106.574 90.0391 104.49 87.955 101.919 87.955C99.3478 87.955 97.2637 90.0391 97.2637 92.61C97.2637 95.1808 99.3478 97.265 101.919 97.265Z" fill="white"/>
<path d="M101.919 115.885C104.49 115.885 106.574 113.801 106.574 111.23C106.574 108.659 104.49 106.575 101.919 106.575C99.3478 106.575 97.2637 108.659 97.2637 111.23C97.2637 113.801 99.3478 115.885 101.919 115.885Z" fill="white"/>
<path d="M101.919 143.815C104.49 143.815 106.574 141.731 106.574 139.16C106.574 136.589 104.49 134.505 101.919 134.505C99.3478 134.505 97.2637 136.589 97.2637 139.16C97.2637 141.731 99.3478 143.815 101.919 143.815Z" fill="white"/>
<path d="M101.919 153.125C104.49 153.125 106.574 151.041 106.574 148.47C106.574 145.899 104.49 143.815 101.919 143.815C99.3478 143.815 97.2637 145.899 97.2637 148.47C97.2637 151.041 99.3478 153.125 101.919 153.125Z" fill="white"/>
<path d="M101.919 162.435C104.49 162.435 106.574 160.351 106.574 157.78C106.574 155.209 104.49 153.125 101.919 153.125C99.3478 153.125 97.2637 155.209 97.2637 157.78C97.2637 160.351 99.3478 162.435 101.919 162.435Z" fill="white"/>
<path d="M101.919 181.055C104.49 181.055 106.574 178.971 106.574 176.4C106.574 173.829 104.49 171.745 101.919 171.745C99.3478 171.745 97.2637 173.829 97.2637 176.4C97.2637 178.971 99.3478 181.055 101.919 181.055Z" fill="white"/>
<path d="M101.919 190.365C104.49 190.365 106.574 188.281 106.574 185.71C106.574 183.139 104.49 181.055 101.919 181.055C99.3478 181.055 97.2637 183.139 97.2637 185.71C97.2637 188.281 99.3478 190.365 101.919 190.365Z" fill="white"/>
<path d="M101.919 199.675C104.49 199.675 106.574 197.591 106.574 195.02C106.574 192.449 104.49 190.365 101.919 190.365C99.3478 190.365 97.2637 192.449 97.2637 195.02C97.2637 197.591 99.3478 199.675 101.919 199.675Z" fill="white"/>
<path d="M101.919 227.605C104.49 227.605 106.574 225.521 106.574 222.95C106.574 220.379 104.49 218.295 101.919 218.295C99.3478 218.295 97.2637 220.379 97.2637 222.95C97.2637 225.521 99.3478 227.605 101.919 227.605Z" fill="white"/>
<path d="M101.919 236.915C104.49 236.915 106.574 234.831 106.574 232.26C106.574 229.689 104.49 227.605 101.919 227.605C99.3478 227.605 97.2637 229.689 97.2637 232.26C97.2637 234.831 99.3478 236.915 101.919 236.915Z" fill="white"/>
<path d="M101.919 264.845C104.49 264.845 106.574 262.761 106.574 260.19C106.574 257.619 104.49 255.535 101.919 255.535C99.3478 255.535 97.2637 257.619 97.2637 260.19C97.2637 262.761 99.3478 264.845 101.919 264.845Z" fill="white"/>
<path d="M101.919 283.465C104.49 283.465 106.574 281.381 106.574 278.81C106.574 276.239 104.49 274.155 101.919 274.155C99.3478 274.155 97.2637 276.239 97.2637 278.81C97.2637 281.381 99.3478 283.465 101.919 283.465Z" fill="white"/>
<path d="M111.229 41.405C113.8 41.405 115.884 39.3209 115.884 36.75C115.884 34.1791 113.8 32.095 111.229 32.095C108.658 32.095 106.574 34.1791 106.574 36.75C106.574 39.3209 108.658 41.405 111.229 41.405Z" fill="white"/>
<path d="M111.229 50.715C113.8 50.715 115.884 48.6309 115.884 46.06C115.884 43.4891 113.8 41.405 111.229 41.405C108.658 41.405 106.574 43.4891 106.574 46.06C106.574 48.6309 108.658 50.715 111.229 50.715Z" fill="white"/>
<path d="M111.229 69.335C113.8 69.335 115.884 67.2509 115.884 64.68C115.884 62.1091 113.8 60.025 111.229 60.025C108.658 60.025 106.574 62.1091 106.574 64.68C106.574 67.2509 108.658 69.335 111.229 69.335Z" fill="white"/>
<path d="M111.229 78.645C113.8 78.645 115.884 76.5608 115.884 73.99C115.884 71.4191 113.8 69.335 111.229 69.335C108.658 69.335 106.574 71.4191 106.574 73.99C106.574 76.5608 108.658 78.645 111.229 78.645Z" fill="white"/>
<path d="M111.229 87.955C113.8 87.955 115.884 85.8709 115.884 83.3C115.884 80.7291 113.8 78.645 111.229 78.645C108.658 78.645 106.574 80.7291 106.574 83.3C106.574 85.8709 108.658 87.955 111.229 87.955Z" fill="white"/>
<path d="M111.229 97.265C113.8 97.265 115.884 95.1808 115.884 92.61C115.884 90.0391 113.8 87.955 111.229 87.955C108.658 87.955 106.574 90.0391 106.574 92.61C106.574 95.1808 108.658 97.265 111.229 97.265Z" fill="white"/>
<path d="M111.229 115.885C113.8 115.885 115.884 113.801 115.884 111.23C115.884 108.659 113.8 106.575 111.229 106.575C108.658 106.575 106.574 108.659 106.574 111.23C106.574 113.801 108.658 115.885 111.229 115.885Z" fill="white"/>
<path d="M111.229 125.195C113.8 125.195 115.884 123.111 115.884 120.54C115.884 117.969 113.8 115.885 111.229 115.885C108.658 115.885 106.574 117.969 106.574 120.54C106.574 123.111 108.658 125.195 111.229 125.195Z" fill="white"/>
<path d="M111.229 134.505C113.8 134.505 115.884 132.421 115.884 129.85C115.884 127.279 113.8 125.195 111.229 125.195C108.658 125.195 106.574 127.279 106.574 129.85C106.574 132.421 108.658 134.505 111.229 134.505Z" fill="white"/>
<path d="M111.229 162.435C113.8 162.435 115.884 160.351 115.884 157.78C115.884 155.209 113.8 153.125 111.229 153.125C108.658 153.125 106.574 155.209 106.574 157.78C106.574 160.351 108.658 162.435 111.229 162.435Z" fill="white"/>
<path d="M111.229 171.745C113.8 171.745 115.884 169.661 115.884 167.09C115.884 164.519 113.8 162.435 111.229 162.435C108.658 162.435 106.574 164.519 106.574 167.09C106.574 169.661 108.658 171.745 111.229 171.745Z" fill="white"/>
<path d="M111.229 190.365C113.8 190.365 115.884 188.281 115.884 185.71C115.884 183.139 113.8 181.055 111.229 181.055C108.658 181.055 106.574 183.139 106.574 185.71C106.574 188.281 108.658 190.365 111.229 190.365Z" fill="white"/>
<path d="M111.229 199.675C113.8 199.675 115.884 197.591 115.884 195.02C115.884 192.449 113.8 190.365 111.229 190.365C108.658 190.365 106.574 192.449 106.574 195.02C106.574 197.591 108.658 199.675 111.229 199.675Z" fill="white"/>
<path d="M111.229 227.605C113.8 227.605 115.884 225.521 115.884 222.95C115.884 220.379 113.8 218.295 111.229 218.295C108.658 218.295 106.574 220.379 106.574 222.95C106.574 225.521 108.658 227.605 111.229 227.605Z" fill="white"/>
<path d="M111.229 236.915C113.8 236.915 115.884 234.831 115.884 232.26C115.884 229.689 113.8 227.605 111.229 227.605C108.658 227.605 106.574 229.689 106.574 232.26C106.574 234.831 108.658 236.915 111.229 236.915Z" fill="white"/>
<path d="M111.229 274.155C113.8 274.155 115.884 272.071 115.884 269.5C115.884 266.929 113.8 264.845 111.229 264.845C108.658 264.845 106.574 266.929 106.574 269.5C106.574 272.071 108.658 274.155 111.229 274.155Z" fill="white"/>
<path d="M120.54 87.955C123.111 87.955 125.195 85.8709 125.195 83.3C125.195 80.7291 123.111 78.645 120.54 78.645C117.969 78.645 115.885 80.7291 115.885 83.3C115.885 85.8709 117.969 87.955 120.54 87.955Z" fill="white"/>
<path d="M120.54 97.265C123.111 97.265 125.195 95.1808 125.195 92.61C125.195 90.0391 123.111 87.955 120.54 87.955C117.969 87.955 115.885 90.0391 115.885 92.61C115.885 95.1808 117.969 97.265 120.54 97.265Z" fill="white"/>
<path d="M120.54 106.575C123.111 106.575 125.195 104.491 125.195 101.92C125.195 99.3491 123.111 97.265 120.54 97.265C117.969 97.265 115.885 99.3491 115.885 101.92C115.885 104.491 117.969 106.575 120.54 106.575Z" fill="white"/>
<path d="M120.54 115.885C123.111 115.885 125.195 113.801 125.195 111.23C125.195 108.659 123.111 106.575 120.54 106.575C117.969 106.575 115.885 108.659 115.885 111.23C115.885 113.801 117.969 115.885 120.54 115.885Z" fill="white"/>
<path d="M120.54 134.505C123.111 134.505 125.195 132.421 125.195 129.85C125.195 127.279 123.111 125.195 120.54 125.195C117.969 125.195 115.885 127.279 115.885 129.85C115.885 132.421 117.969 134.505 120.54 134.505Z" fill="white"/>
<path d="M120.54 153.125C123.111 153.125 125.195 151.041 125.195 148.47C125.195 145.899 123.111 143.815 120.54 143.815C117.969 143.815 115.885 145.899 115.885 148.47C115.885 151.041 117.969 153.125 120.54 153.125Z" fill="white"/>
<path d="M120.54 162.435C123.111 162.435 125.195 160.351 125.195 157.78C125.195 155.209 123.111 153.125 120.54 153.125C117.969 153.125 115.885 155.209 115.885 157.78C115.885 160.351 117.969 162.435 120.54 162.435Z" fill="white"/>
<path d="M120.54 171.745C123.111 171.745 125.195 169.661 125.195 167.09C125.195 164.519 123.111 162.435 120.54 162.435C117.969 162.435 115.885 164.519 115.885 167.09C115.885 169.661 117.969 171.745 120.54 171.745Z" fill="white"/>
<path d="M120.54 190.365C123.111 190.365 125.195 188.281 125.195 185.71C125.195 183.139 123.111 181.055 120.54 181.055C117.969 181.055 115.885 183.139 115.885 185.71C115.885 188.281 117.969 190.365 120.54 190.365Z" fill="white"/>
<path d="M120.54 199.675C123.111 199.675 125.195 197.591 125.195 195.02C125.195 192.449 123.111 190.365 120.54 190.365C117.969 190.365 115.885 192.449 115.885 195.02C115.885 197.591 117.969 199.675 120.54 199.675Z" fill="white"/>
<path d="M120.54 208.985C123.111 208.985 125.195 206.901 125.195 204.33C125.195 201.759 123.111 199.675 120.54 199.675C117.969 199.675 115.885 201.759 115.885 204.33C115.885 206.901 117.969 208.985 120.54 208.985Z" fill="white"/>
<path d="M120.54 218.295C123.111 218.295 125.195 216.211 125.195 213.64C125.195 211.069 123.111 208.985 120.54 208.985C117.969 208.985 115.885 211.069 115.885 213.64C115.885 216.211 117.969 218.295 120.54 218.295Z" fill="white"/>
<path d="M120.54 227.605C123.111 227.605 125.195 225.521 125.195 222.95C125.195 220.379 123.111 218.295 120.54 218.295C117.969 218.295 115.885 220.379 115.885 222.95C115.885 225.521 117.969 227.605 120.54 227.605Z" fill="white"/>
<path d="M120.54 264.845C123.111 264.845 125.195 262.761 125.195 260.19C125.195 257.619 123.111 255.535 120.54 255.535C117.969 255.535 115.885 257.619 115.885 260.19C115.885 262.761 117.969 264.845 120.54 264.845Z" fill="white"/>
<path d="M120.54 274.155C123.111 274.155 125.195 272.071 125.195 269.5C125.195 266.929 123.111 264.845 120.54 264.845C117.969 264.845 115.885 266.929 115.885 269.5C115.885 272.071 117.969 274.155 120.54 274.155Z" fill="white"/>
<path d="M129.85 32.095C132.421 32.095 134.505 30.0109 134.505 27.44C134.505 24.8691 132.421 22.785 129.85 22.785C127.279 22.785 125.195 24.8691 125.195 27.44C125.195 30.0109 127.279 32.095 129.85 32.095Z" fill="white"/>
<path d="M129.85 41.405C132.421 41.405 134.505 39.3209 134.505 36.75C134.505 34.1791 132.421 32.095 129.85 32.095C127.279 32.095 125.195 34.1791 125.195 36.75C125.195 39.3209 127.279 41.405 129.85 41.405Z" fill="white"/>
<path d="M129.85 78.645C132.421 78.645 134.505 76.5608 134.505 73.99C134.505 71.4191 132.421 69.335 129.85 69.335C127.279 69.335 125.195 71.4191 125.195 73.99C125.195 76.5608 127.279 78.645 129.85 78.645Z" fill="white"/>
<path d="M129.85 97.265C132.421 97.265 134.505 95.1808 134.505 92.61C134.505 90.0391 132.421 87.955 129.85 87.955C127.279 87.955 125.195 90.0391 125.195 92.61C125.195 95.1808 127.279 97.265 129.85 97.265Z" fill="white"/>
<path d="M129.85 115.885C132.421 115.885 134.505 113.801 134.505 111.23C134.505 108.659 132.421 106.575 129.85 106.575C127.279 106.575 125.195 108.659 125.195 111.23C125.195 113.801 127.279 115.885 129.85 115.885Z" fill="white"/>
<path d="M129.85 153.125C132.421 153.125 134.505 151.041 134.505 148.47C134.505 145.899 132.421 143.815 129.85 143.815C127.279 143.815 125.195 145.899 125.195 148.47C125.195 151.041 127.279 153.125 129.85 153.125Z" fill="white"/>
<path d="M129.85 181.055C132.421 181.055 134.505 178.971 134.505 176.4C134.505 173.829 132.421 171.745 129.85 171.745C127.279 171.745 125.195 173.829 125.195 176.4C125.195 178.971 127.279 181.055 129.85 181.055Z" fill="white"/>
<path d="M129.85 199.675C132.421 199.675 134.505 197.591 134.505 195.02C134.505 192.449 132.421 190.365 129.85 190.365C127.279 190.365 125.195 192.449 125.195 195.02C125.195 197.591 127.279 199.675 129.85 199.675Z" fill="white"/>
<path d="M129.85 208.985C132.421 208.985 134.505 206.901 134.505 204.33C134.505 201.759 132.421 199.675 129.85 199.675C127.279 199.675 125.195 201.759 125.195 204.33C125.195 206.901 127.279 208.985 129.85 208.985Z" fill="white"/>
<path d="M129.85 227.605C132.421 227.605 134.505 225.521 134.505 222.95C134.505 220.379 132.421 218.295 129.85 218.295C127.279 218.295 125.195 220.379 125.195 222.95C125.195 225.521 127.279 227.605 129.85 227.605Z" fill="white"/>
<path d="M129.85 236.915C132.421 236.915 134.505 234.831 134.505 232.26C134.505 229.689 132.421 227.605 129.85 227.605C127.279 227.605 125.195 229.689 125.195 232.26C125.195 234.831 127.279 236.915 129.85 236.915Z" fill="white"/>
<path d="M129.85 264.845C132.421 264.845 134.505 262.761 134.505 260.19C134.505 257.619 132.421 255.535 129.85 255.535C127.279 255.535 125.195 257.619 125.195 260.19C125.195 262.761 127.279 264.845 129.85 264.845Z" fill="white"/>
<path d="M139.159 22.785C141.73 22.785 143.814 20.7009 143.814 18.13C143.814 15.5591 141.73 13.475 139.159 13.475C136.588 13.475 134.504 15.5591 134.504 18.13C134.504 20.7009 136.588 22.785 139.159 22.785Z" fill="white"/>
<path d="M139.159 41.405C141.73 41.405 143.814 39.3209 143.814 36.75C143.814 34.1791 141.73 32.095 139.159 32.095C136.588 32.095 134.504 34.1791 134.504 36.75C134.504 39.3209 136.588 41.405 139.159 41.405Z" fill="white"/>
<path d="M139.159 50.715C141.73 50.715 143.814 48.6309 143.814 46.06C143.814 43.4891 141.73 41.405 139.159 41.405C136.588 41.405 134.504 43.4891 134.504 46.06C134.504 48.6309 136.588 50.715 139.159 50.715Z" fill="white"/>
<path d="M139.159 115.885C141.73 115.885 143.814 113.801 143.814 111.23C143.814 108.659 141.73 106.575 139.159 106.575C136.588 106.575 134.504 108.659 134.504 111.23C134.504 113.801 136.588 115.885 139.159 115.885Z" fill="white"/>
<path d="M139.159 125.195C141.73 125.195 143.814 123.111 143.814 120.54C143.814 117.969 141.73 115.885 139.159 115.885C136.588 115.885 134.504 117.969 134.504 120.54C134.504 123.111 136.588 125.195 139.159 125.195Z" fill="white"/>
<path d="M139.159 134.505C141.73 134.505 143.814 132.421 143.814 129.85C143.814 127.279 141.73 125.195 139.159 125.195C136.588 125.195 134.504 127.279 134.504 129.85C134.504 132.421 136.588 134.505 139.159 134.505Z" fill="white"/>
<path d="M139.159 153.125C141.73 153.125 143.814 151.041 143.814 148.47C143.814 145.899 141.73 143.815 139.159 143.815C136.588 143.815 134.504 145.899 134.504 148.47C134.504 151.041 136.588 153.125 139.159 153.125Z" fill="white"/>
<path d="M139.159 162.435C141.73 162.435 143.814 160.351 143.814 157.78C143.814 155.209 141.73 153.125 139.159 153.125C136.588 153.125 134.504 155.209 134.504 157.78C134.504 160.351 136.588 162.435 139.159 162.435Z" fill="white"/>
<path d="M139.159 190.365C141.73 190.365 143.814 188.281 143.814 185.71C143.814 183.139 141.73 181.055 139.159 181.055C136.588 181.055 134.504 183.139 134.504 185.71C134.504 188.281 136.588 190.365 139.159 190.365Z" fill="white"/>
<path d="M139.159 199.675C141.73 199.675 143.814 197.591 143.814 195.02C143.814 192.449 141.73 190.365 139.159 190.365C136.588 190.365 134.504 192.449 134.504 195.02C134.504 197.591 136.588 199.675 139.159 199.675Z" fill="white"/>
<path d="M139.159 208.985C141.73 208.985 143.814 206.901 143.814 204.33C143.814 201.759 141.73 199.675 139.159 199.675C136.588 199.675 134.504 201.759 134.504 204.33C134.504 206.901 136.588 208.985 139.159 208.985Z" fill="white"/>
<path d="M139.159 218.295C141.73 218.295 143.814 216.211 143.814 213.64C143.814 211.069 141.73 208.985 139.159 208.985C136.588 208.985 134.504 211.069 134.504 213.64C134.504 216.211 136.588 218.295 139.159 218.295Z" fill="white"/>
<path d="M139.159 236.915C141.73 236.915 143.814 234.831 143.814 232.26C143.814 229.689 141.73 227.605 139.159 227.605C136.588 227.605 134.504 229.689 134.504 232.26C134.504 234.831 136.588 236.915 139.159 236.915Z" fill="white"/>
<path d="M139.159 255.535C141.73 255.535 143.814 253.451 143.814 250.88C143.814 248.309 141.73 246.225 139.159 246.225C136.588 246.225 134.504 248.309 134.504 250.88C134.504 253.451 136.588 255.535 139.159 255.535Z" fill="white"/>
<path d="M139.159 274.155C141.73 274.155 143.814 272.071 143.814 269.5C143.814 266.929 141.73 264.845 139.159 264.845C136.588 264.845 134.504 266.929 134.504 269.5C134.504 272.071 136.588 274.155 139.159 274.155Z" fill="white"/>
<path d="M148.469 22.785C151.04 22.785 153.124 20.7009 153.124 18.13C153.124 15.5591 151.04 13.475 148.469 13.475C145.899 13.475 143.814 15.5591 143.814 18.13C143.814 20.7009 145.899 22.785 148.469 22.785Z" fill="white"/>
<path d="M148.469 32.095C151.04 32.095 153.124 30.0109 153.124 27.44C153.124 24.8691 151.04 22.785 148.469 22.785C145.899 22.785 143.814 24.8691 143.814 27.44C143.814 30.0109 145.899 32.095 148.469 32.095Z" fill="white"/>
<path d="M148.469 41.405C151.04 41.405 153.124 39.3209 153.124 36.75C153.124 34.1791 151.04 32.095 148.469 32.095C145.899 32.095 143.814 34.1791 143.814 36.75C143.814 39.3209 145.899 41.405 148.469 41.405Z" fill="white"/>
<path d="M148.469 50.715C151.04 50.715 153.124 48.6309 153.124 46.06C153.124 43.4891 151.04 41.405 148.469 41.405C145.899 41.405 143.814 43.4891 143.814 46.06C143.814 48.6309 145.899 50.715 148.469 50.715Z" fill="white"/>
<path d="M148.469 60.025C151.04 60.025 153.124 57.9409 153.124 55.37C153.124 52.7991 151.04 50.715 148.469 50.715C145.899 50.715 143.814 52.7991 143.814 55.37C143.814 57.9409 145.899 60.025 148.469 60.025Z" fill="white"/>
<path d="M148.469 78.645C151.04 78.645 153.124 76.5608 153.124 73.99C153.124 71.4191 151.04 69.335 148.469 69.335C145.899 69.335 143.814 71.4191 143.814 73.99C143.814 76.5608 145.899 78.645 148.469 78.645Z" fill="white"/>
<path d="M148.469 87.955C151.04 87.955 153.124 85.8709 153.124 83.3C153.124 80.7291 151.04 78.645 148.469 78.645C145.899 78.645 143.814 80.7291 143.814 83.3C143.814 85.8709 145.899 87.955 148.469 87.955Z" fill="white"/>
<path d="M148.469 97.265C151.04 97.265 153.124 95.1808 153.124 92.61C153.124 90.0391 151.04 87.955 148.469 87.955C145.899 87.955 143.814 90.0391 143.814 92.61C143.814 95.1808 145.899 97.265 148.469 97.265Z" fill="white"/>
<path d="M148.469 106.575C151.04 106.575 153.124 104.491 153.124 101.92C153.124 99.3491 151.04 97.265 148.469 97.265C145.899 97.265 143.814 99.3491 143.814 101.92C143.814 104.491 145.899 106.575 148.469 106.575Z" fill="white"/>
<path d="M148.469 115.885C151.04 115.885 153.124 113.801 153.124 111.23C153.124 108.659 151.04 106.575 148.469 106.575C145.899 106.575 143.814 108.659 143.814 111.23C143.814 113.801 145.899 115.885 148.469 115.885Z" fill="white"/>
<path d="M148.469 134.505C151.04 134.505 153.124 132.421 153.124 129.85C153.124 127.279 151.04 125.195 148.469 125.195C145.899 125.195 143.814 127.279 143.814 129.85C143.814 132.421 145.899 134.505 148.469 134.505Z" fill="white"/>
<path d="M148.469 143.815C151.04 143.815 153.124 141.731 153.124 139.16C153.124 136.589 151.04 134.505 148.469 134.505C145.899 134.505 143.814 136.589 143.814 139.16C143.814 141.731 145.899 143.815 148.469 143.815Z" fill="white"/>
<path d="M148.469 153.125C151.04 153.125 153.124 151.041 153.124 148.47C153.124 145.899 151.04 143.815 148.469 143.815C145.899 143.815 143.814 145.899 143.814 148.47C143.814 151.041 145.899 153.125 148.469 153.125Z" fill="white"/>
<path d="M148.469 171.745C151.04 171.745 153.124 169.661 153.124 167.09C153.124 164.519 151.04 162.435 148.469 162.435C145.899 162.435 143.814 164.519 143.814 167.09C143.814 169.661 145.899 171.745 148.469 171.745Z" fill="white"/>
<path d="M148.469 208.985C151.04 208.985 153.124 206.901 153.124 204.33C153.124 201.759 151.04 199.675 148.469 199.675C145.899 199.675 143.814 201.759 143.814 204.33C143.814 206.901 145.899 208.985 148.469 208.985Z" fill="white"/>
<path d="M148.469 227.605C151.04 227.605 153.124 225.521 153.124 222.95C153.124 220.379 151.04 218.295 148.469 218.295C145.899 218.295 143.814 220.379 143.814 222.95C143.814 225.521 145.899 227.605 148.469 227.605Z" fill="white"/>
<path d="M148.469 283.465C151.04 283.465 153.124 281.381 153.124 278.81C153.124 276.239 151.04 274.155 148.469 274.155C145.899 274.155 143.814 276.239 143.814 278.81C143.814 281.381 145.899 283.465 148.469 283.465Z" fill="white"/>
<path d="M157.78 22.785C160.351 22.785 162.435 20.7009 162.435 18.13C162.435 15.5591 160.351 13.475 157.78 13.475C155.209 13.475 153.125 15.5591 153.125 18.13C153.125 20.7009 155.209 22.785 157.78 22.785Z" fill="white"/>
<path d="M157.78 69.335C160.351 69.335 162.435 67.2509 162.435 64.68C162.435 62.1091 160.351 60.025 157.78 60.025C155.209 60.025 153.125 62.1091 153.125 64.68C153.125 67.2509 155.209 69.335 157.78 69.335Z" fill="white"/>
<path d="M157.78 97.265C160.351 97.265 162.435 95.1808 162.435 92.61C162.435 90.0391 160.351 87.955 157.78 87.955C155.209 87.955 153.125 90.0391 153.125 92.61C153.125 95.1808 155.209 97.265 157.78 97.265Z" fill="white"/>
<path d="M157.78 106.575C160.351 106.575 162.435 104.491 162.435 101.92C162.435 99.3491 160.351 97.265 157.78 97.265C155.209 97.265 153.125 99.3491 153.125 101.92C153.125 104.491 155.209 106.575 157.78 106.575Z" fill="white"/>
<path d="M157.78 125.195C160.351 125.195 162.435 123.111 162.435 120.54C162.435 117.969 160.351 115.885 157.78 115.885C155.209 115.885 153.125 117.969 153.125 120.54C153.125 123.111 155.209 125.195 157.78 125.195Z" fill="white"/>
<path d="M157.78 199.675C160.351 199.675 162.435 197.591 162.435 195.02C162.435 192.449 160.351 190.365 157.78 190.365C155.209 190.365 153.125 192.449 153.125 195.02C153.125 197.591 155.209 199.675 157.78 199.675Z" fill="white"/>
<path d="M157.78 208.985C160.351 208.985 162.435 206.901 162.435 204.33C162.435 201.759 160.351 199.675 157.78 199.675C155.209 199.675 153.125 201.759 153.125 204.33C153.125 206.901 155.209 208.985 157.78 208.985Z" fill="white"/>
<path d="M157.78 218.295C160.351 218.295 162.435 216.211 162.435 213.64C162.435 211.069 160.351 208.985 157.78 208.985C155.209 208.985 153.125 211.069 153.125 213.64C153.125 216.211 155.209 218.295 157.78 218.295Z" fill="white"/>
<path d="M157.78 227.605C160.351 227.605 162.435 225.521 162.435 222.95C162.435 220.379 160.351 218.295 157.78 218.295C155.209 218.295 153.125 220.379 153.125 222.95C153.125 225.521 155.209 227.605 157.78 227.605Z" fill="white"/>
<path d="M157.78 236.915C160.351 236.915 162.435 234.831 162.435 232.26C162.435 229.689 160.351 227.605 157.78 227.605C155.209 227.605 153.125 229.689 153.125 232.26C153.125 234.831 155.209 236.915 157.78 236.915Z" fill="white"/>
<path d="M167.091 41.405C169.661 41.405 171.746 39.3209 171.746 36.75C171.746 34.1791 169.661 32.095 167.091 32.095C164.52 32.095 162.436 34.1791 162.436 36.75C162.436 39.3209 164.52 41.405 167.091 41.405Z" fill="white"/>
<path d="M167.091 50.715C169.661 50.715 171.746 48.6309 171.746 46.06C171.746 43.4891 169.661 41.405 167.091 41.405C164.52 41.405 162.436 43.4891 162.436 46.06C162.436 48.6309 164.52 50.715 167.091 50.715Z" fill="white"/>
<path d="M167.091 78.645C169.661 78.645 171.746 76.5608 171.746 73.99C171.746 71.4191 169.661 69.335 167.091 69.335C164.52 69.335 162.436 71.4191 162.436 73.99C162.436 76.5608 164.52 78.645 167.091 78.645Z" fill="white"/>
<path d="M167.091 106.575C169.661 106.575 171.746 104.491 171.746 101.92C171.746 99.3491 169.661 97.265 167.091 97.265C164.52 97.265 162.436 99.3491 162.436 101.92C162.436 104.491 164.52 106.575 167.091 106.575Z" fill="white"/>
<path d="M167.091 125.195C169.661 125.195 171.746 123.111 171.746 120.54C171.746 117.969 169.661 115.885 167.091 115.885C164.52 115.885 162.436 117.969 162.436 120.54C162.436 123.111 164.52 125.195 167.091 125.195Z" fill="white"/>
<path d="M167.091 153.125C169.661 153.125 171.746 151.041 171.746 148.47C171.746 145.899 169.661 143.815 167.091 143.815C164.52 143.815 162.436 145.899 162.436 148.47C162.436 151.041 164.52 153.125 167.091 153.125Z" fill="white"/>
<path d="M167.091 162.435C169.661 162.435 171.746 160.351 171.746 157.78C171.746 155.209 169.661 153.125 167.091 153.125C164.52 153.125 162.436 155.209 162.436 157.78C162.436 160.351 164.52 162.435 167.091 162.435Z" fill="white"/>
<path d="M167.091 171.745C169.661 171.745 171.746 169.661 171.746 167.09C171.746 164.519 169.661 162.435 167.091 162.435C164.52 162.435 162.436 164.519 162.436 167.09C162.436 169.661 164.52 171.745 167.091 171.745Z" fill="white"/>
<path d="M167.091 218.295C169.661 218.295 171.746 216.211 171.746 213.64C171.746 211.069 169.661 208.985 167.091 208.985C164.52 208.985 162.436 211.069 162.436 213.64C162.436 216.211 164.52 218.295 167.091 218.295Z" fill="white"/>
<path d="M167.091 236.915C169.661 236.915 171.746 234.831 171.746 232.26C171.746 229.689 169.661 227.605 167.091 227.605C164.52 227.605 162.436 229.689 162.436 232.26C162.436 234.831 164.52 236.915 167.091 236.915Z" fill="white"/>
<path d="M167.091 274.155C169.661 274.155 171.746 272.071 171.746 269.5C171.746 266.929 169.661 264.845 167.091 264.845C164.52 264.845 162.436 266.929 162.436 269.5C162.436 272.071 164.52 274.155 167.091 274.155Z" fill="white"/>
<path d="M167.091 283.465C169.661 283.465 171.746 281.381 171.746 278.81C171.746 276.239 169.661 274.155 167.091 274.155C164.52 274.155 162.436 276.239 162.436 278.81C162.436 281.381 164.52 283.465 167.091 283.465Z" fill="white"/>
<path d="M176.399 32.095C178.97 32.095 181.054 30.0109 181.054 27.44C181.054 24.8691 178.97 22.785 176.399 22.785C173.828 22.785 171.744 24.8691 171.744 27.44C171.744 30.0109 173.828 32.095 176.399 32.095Z" fill="white"/>
<path d="M176.399 60.025C178.97 60.025 181.054 57.9409 181.054 55.37C181.054 52.7991 178.97 50.715 176.399 50.715C173.828 50.715 171.744 52.7991 171.744 55.37C171.744 57.9409 173.828 60.025 176.399 60.025Z" fill="white"/>
<path d="M176.399 69.335C178.97 69.335 181.054 67.2509 181.054 64.68C181.054 62.1091 178.97 60.025 176.399 60.025C173.828 60.025 171.744 62.1091 171.744 64.68C171.744 67.2509 173.828 69.335 176.399 69.335Z" fill="white"/>
<path d="M176.399 106.575C178.97 106.575 181.054 104.491 181.054 101.92C181.054 99.3491 178.97 97.265 176.399 97.265C173.828 97.265 171.744 99.3491 171.744 101.92C171.744 104.491 173.828 106.575 176.399 106.575Z" fill="white"/>
<path d="M176.399 115.885C178.97 115.885 181.054 113.801 181.054 111.23C181.054 108.659 178.97 106.575 176.399 106.575C173.828 106.575 171.744 108.659 171.744 111.23C171.744 113.801 173.828 115.885 176.399 115.885Z" fill="white"/>
<path d="M176.399 125.195C178.97 125.195 181.054 123.111 181.054 120.54C181.054 117.969 178.97 115.885 176.399 115.885C173.828 115.885 171.744 117.969 171.744 120.54C171.744 123.111 173.828 125.195 176.399 125.195Z" fill="white"/>
<path d="M176.399 143.815C178.97 143.815 181.054 141.731 181.054 139.16C181.054 136.589 178.97 134.505 176.399 134.505C173.828 134.505 171.744 136.589 171.744 139.16C171.744 141.731 173.828 143.815 176.399 143.815Z" fill="white"/>
<path d="M176.399 162.435C178.97 162.435 181.054 160.351 181.054 157.78C181.054 155.209 178.97 153.125 176.399 153.125C173.828 153.125 171.744 155.209 171.744 157.78C171.744 160.351 173.828 162.435 176.399 162.435Z" fill="white"/>
<path d="M176.399 199.675C178.97 199.675 181.054 197.591 181.054 195.02C181.054 192.449 178.97 190.365 176.399 190.365C173.828 190.365 171.744 192.449 171.744 195.02C171.744 197.591 173.828 199.675 176.399 199.675Z" fill="white"/>
<path d="M176.399 218.295C178.97 218.295 181.054 216.211 181.054 213.64C181.054 211.069 178.97 208.985 176.399 208.985C173.828 208.985 171.744 211.069 171.744 213.64C171.744 216.211 173.828 218.295 176.399 218.295Z" fill="white"/>
<path d="M176.399 227.605C178.97 227.605 181.054 225.521 181.054 222.95C181.054 220.379 178.97 218.295 176.399 218.295C173.828 218.295 171.744 220.379 171.744 222.95C171.744 225.521 173.828 227.605 176.399 227.605Z" fill="white"/>
<path d="M176.399 236.915C178.97 236.915 181.054 234.831 181.054 232.26C181.054 229.689 178.97 227.605 176.399 227.605C173.828 227.605 171.744 229.689 171.744 232.26C171.744 234.831 173.828 236.915 176.399 236.915Z" fill="white"/>
<path d="M176.399 274.155C178.97 274.155 181.054 272.071 181.054 269.5C181.054 266.929 178.97 264.845 176.399 264.845C173.828 264.845 171.744 266.929 171.744 269.5C171.744 272.071 173.828 274.155 176.399 274.155Z" fill="white"/>
<path d="M176.399 283.465C178.97 283.465 181.054 281.381 181.054 278.81C181.054 276.239 178.97 274.155 176.399 274.155C173.828 274.155 171.744 276.239 171.744 278.81C171.744 281.381 173.828 283.465 176.399 283.465Z" fill="white"/>
<path d="M185.71 22.785C188.281 22.785 190.365 20.7009 190.365 18.13C190.365 15.5591 188.281 13.475 185.71 13.475C183.139 13.475 181.055 15.5591 181.055 18.13C181.055 20.7009 183.139 22.785 185.71 22.785Z" fill="white"/>
<path d="M185.71 60.025C188.281 60.025 190.365 57.9409 190.365 55.37C190.365 52.7991 188.281 50.715 185.71 50.715C183.139 50.715 181.055 52.7991 181.055 55.37C181.055 57.9409 183.139 60.025 185.71 60.025Z" fill="white"/>
<path d="M185.71 78.645C188.281 78.645 190.365 76.5608 190.365 73.99C190.365 71.4191 188.281 69.335 185.71 69.335C183.139 69.335 181.055 71.4191 181.055 73.99C181.055 76.5608 183.139 78.645 185.71 78.645Z" fill="white"/>
<path d="M185.71 97.265C188.281 97.265 190.365 95.1808 190.365 92.61C190.365 90.0391 188.281 87.955 185.71 87.955C183.139 87.955 181.055 90.0391 181.055 92.61C181.055 95.1808 183.139 97.265 185.71 97.265Z" fill="white"/>
<path d="M185.71 106.575C188.281 106.575 190.365 104.491 190.365 101.92C190.365 99.3491 188.281 97.265 185.71 97.265C183.139 97.265 181.055 99.3491 181.055 101.92C181.055 104.491 183.139 106.575 185.71 106.575Z" fill="white"/>
<path d="M185.71 125.195C188.281 125.195 190.365 123.111 190.365 120.54C190.365 117.969 188.281 115.885 185.71 115.885C183.139 115.885 181.055 117.969 181.055 120.54C181.055 123.111 183.139 125.195 185.71 125.195Z" fill="white"/>
<path d="M185.71 143.815C188.281 143.815 190.365 141.731 190.365 139.16C190.365 136.589 188.281 134.505 185.71 134.505C183.139 134.505 181.055 136.589 181.055 139.16C181.055 141.731 183.139 143.815 185.71 143.815Z" fill="white"/>
<path d="M185.71 153.125C188.281 153.125 190.365 151.041 190.365 148.47C190.365 145.899 188.281 143.815 185.71 143.815C183.139 143.815 181.055 145.899 181.055 148.47C181.055 151.041 183.139 153.125 185.71 153.125Z" fill="white"/>
<path d="M185.71 181.055C188.281 181.055 190.365 178.971 190.365 176.4C190.365 173.829 188.281 171.745 185.71 171.745C183.139 171.745 181.055 173.829 181.055 176.4C181.055 178.971 183.139 181.055 185.71 181.055Z" fill="white"/>
<path d="M185.71 190.365C188.281 190.365 190.365 188.281 190.365 185.71C190.365 183.139 188.281 181.055 185.71 181.055C183.139 181.055 181.055 183.139 181.055 185.71C181.055 188.281 183.139 190.365 185.71 190.365Z" fill="white"/>
<path d="M185.71 218.295C188.281 218.295 190.365 216.211 190.365 213.64C190.365 211.069 188.281 208.985 185.71 208.985C183.139 208.985 181.055 211.069 181.055 213.64C181.055 216.211 183.139 218.295 185.71 218.295Z" fill="white"/>
<path d="M185.71 236.915C188.281 236.915 190.365 234.831 190.365 232.26C190.365 229.689 188.281 227.605 185.71 227.605C183.139 227.605 181.055 229.689 181.055 232.26C181.055 234.831 183.139 236.915 185.71 236.915Z" fill="white"/>
<path d="M185.71 255.535C188.281 255.535 190.365 253.451 190.365 250.88C190.365 248.309 188.281 246.225 185.71 246.225C183.139 246.225 181.055 248.309 181.055 250.88C181.055 253.451 183.139 255.535 185.71 255.535Z" fill="white"/>
<path d="M185.71 274.155C188.281 274.155 190.365 272.071 190.365 269.5C190.365 266.929 188.281 264.845 185.71 264.845C183.139 264.845 181.055 266.929 181.055 269.5C181.055 272.071 183.139 274.155 185.71 274.155Z" fill="white"/>
<path d="M185.71 283.465C188.281 283.465 190.365 281.381 190.365 278.81C190.365 276.239 188.281 274.155 185.71 274.155C183.139 274.155 181.055 276.239 181.055 278.81C181.055 281.381 183.139 283.465 185.71 283.465Z" fill="white"/>
<path d="M195.02 60.025C197.591 60.025 199.675 57.9409 199.675 55.37C199.675 52.7991 197.591 50.715 195.02 50.715C192.449 50.715 190.365 52.7991 190.365 55.37C190.365 57.9409 192.449 60.025 195.02 60.025Z" fill="white"/>
<path d="M195.02 97.265C197.591 97.265 199.675 95.1808 199.675 92.61C199.675 90.0391 197.591 87.955 195.02 87.955C192.449 87.955 190.365 90.0391 190.365 92.61C190.365 95.1808 192.449 97.265 195.02 97.265Z" fill="white"/>
<path d="M195.02 134.505C197.591 134.505 199.675 132.421 199.675 129.85C199.675 127.279 197.591 125.195 195.02 125.195C192.449 125.195 190.365 127.279 190.365 129.85C190.365 132.421 192.449 134.505 195.02 134.505Z" fill="white"/>
<path d="M195.02 143.815C197.591 143.815 199.675 141.731 199.675 139.16C199.675 136.589 197.591 134.505 195.02 134.505C192.449 134.505 190.365 136.589 190.365 139.16C190.365 141.731 192.449 143.815 195.02 143.815Z" fill="white"/>
<path d="M195.02 162.435C197.591 162.435 199.675 160.351 199.675 157.78C199.675 155.209 197.591 153.125 195.02 153.125C192.449 153.125 190.365 155.209 190.365 157.78C190.365 160.351 192.449 162.435 195.02 162.435Z" fill="white"/>
<path d="M195.02 171.745C197.591 171.745 199.675 169.661 199.675 167.09C199.675 164.519 197.591 162.435 195.02 162.435C192.449 162.435 190.365 164.519 190.365 167.09C190.365 169.661 192.449 171.745 195.02 171.745Z" fill="white"/>
<path d="M195.02 181.055C197.591 181.055 199.675 178.971 199.675 176.4C199.675 173.829 197.591 171.745 195.02 171.745C192.449 171.745 190.365 173.829 190.365 176.4C190.365 178.971 192.449 181.055 195.02 181.055Z" fill="white"/>
<path d="M195.02 236.915C197.591 236.915 199.675 234.831 199.675 232.26C199.675 229.689 197.591 227.605 195.02 227.605C192.449 227.605 190.365 229.689 190.365 232.26C190.365 234.831 192.449 236.915 195.02 236.915Z" fill="white"/>
<path d="M195.02 274.155C197.591 274.155 199.675 272.071 199.675 269.5C199.675 266.929 197.591 264.845 195.02 264.845C192.449 264.845 190.365 266.929 190.365 269.5C190.365 272.071 192.449 274.155 195.02 274.155Z" fill="white"/>
<path d="M204.329 22.785C206.9 22.785 208.984 20.7009 208.984 18.13C208.984 15.5591 206.9 13.475 204.329 13.475C201.758 13.475 199.674 15.5591 199.674 18.13C199.674 20.7009 201.758 22.785 204.329 22.785Z" fill="white"/>
<path d="M204.329 41.405C206.9 41.405 208.984 39.3209 208.984 36.75C208.984 34.1791 206.9 32.095 204.329 32.095C201.758 32.095 199.674 34.1791 199.674 36.75C199.674 39.3209 201.758 41.405 204.329 41.405Z" fill="white"/>
<path d="M204.329 78.645C206.9 78.645 208.984 76.5608 208.984 73.99C208.984 71.4191 206.9 69.335 204.329 69.335C201.758 69.335 199.674 71.4191 199.674 73.99C199.674 76.5608 201.758 78.645 204.329 78.645Z" fill="white"/>
<path d="M204.329 87.955C206.9 87.955 208.984 85.8709 208.984 83.3C208.984 80.7291 206.9 78.645 204.329 78.645C201.758 78.645 199.674 80.7291 199.674 83.3C199.674 85.8709 201.758 87.955 204.329 87.955Z" fill="white"/>
<path d="M204.329 97.265C206.9 97.265 208.984 95.1808 208.984 92.61C208.984 90.0391 206.9 87.955 204.329 87.955C201.758 87.955 199.674 90.0391 199.674 92.61C199.674 95.1808 201.758 97.265 204.329 97.265Z" fill="white"/>
<path d="M204.329 125.195C206.9 125.195 208.984 123.111 208.984 120.54C208.984 117.969 206.9 115.885 204.329 115.885C201.758 115.885 199.674 117.969 199.674 120.54C199.674 123.111 201.758 125.195 204.329 125.195Z" fill="white"/>
<path d="M204.329 134.505C206.9 134.505 208.984 132.421 208.984 129.85C208.984 127.279 206.9 125.195 204.329 125.195C201.758 125.195 199.674 127.279 199.674 129.85C199.674 132.421 201.758 134.505 204.329 134.505Z" fill="white"/>
<path d="M204.329 153.125C206.9 153.125 208.984 151.041 208.984 148.47C208.984 145.899 206.9 143.815 204.329 143.815C201.758 143.815 199.674 145.899 199.674 148.47C199.674 151.041 201.758 153.125 204.329 153.125Z" fill="white"/>
<path d="M204.329 171.745C206.9 171.745 208.984 169.661 208.984 167.09C208.984 164.519 206.9 162.435 204.329 162.435C201.758 162.435 199.674 164.519 199.674 167.09C199.674 169.661 201.758 171.745 204.329 171.745Z" fill="white"/>
<path d="M204.329 190.365C206.9 190.365 208.984 188.281 208.984 185.71C208.984 183.139 206.9 181.055 204.329 181.055C201.758 181.055 199.674 183.139 199.674 185.71C199.674 188.281 201.758 190.365 204.329 190.365Z" fill="white"/>
<path d="M204.329 208.985C206.9 208.985 208.984 206.901 208.984 204.33C208.984 201.759 206.9 199.675 204.329 199.675C201.758 199.675 199.674 201.759 199.674 204.33C199.674 206.901 201.758 208.985 204.329 208.985Z" fill="white"/>
<path d="M204.329 218.295C206.9 218.295 208.984 216.211 208.984 213.64C208.984 211.069 206.9 208.985 204.329 208.985C201.758 208.985 199.674 211.069 199.674 213.64C199.674 216.211 201.758 218.295 204.329 218.295Z" fill="white"/>
<path d="M204.329 227.605C206.9 227.605 208.984 225.521 208.984 222.95C208.984 220.379 206.9 218.295 204.329 218.295C201.758 218.295 199.674 220.379 199.674 222.95C199.674 225.521 201.758 227.605 204.329 227.605Z" fill="white"/>
<path d="M204.329 236.915C206.9 236.915 208.984 234.831 208.984 232.26C208.984 229.689 206.9 227.605 204.329 227.605C201.758 227.605 199.674 229.689 199.674 232.26C199.674 234.831 201.758 236.915 204.329 236.915Z" fill="white"/>
<path d="M204.329 246.225C206.9 246.225 208.984 244.141 208.984 241.57C208.984 238.999 206.9 236.915 204.329 236.915C201.758 236.915 199.674 238.999 199.674 241.57C199.674 244.141 201.758 246.225 204.329 246.225Z" fill="white"/>
<path d="M204.329 255.535C206.9 255.535 208.984 253.451 208.984 250.88C208.984 248.309 206.9 246.225 204.329 246.225C201.758 246.225 199.674 248.309 199.674 250.88C199.674 253.451 201.758 255.535 204.329 255.535Z" fill="white"/>
<path d="M204.329 264.845C206.9 264.845 208.984 262.761 208.984 260.19C208.984 257.619 206.9 255.535 204.329 255.535C201.758 255.535 199.674 257.619 199.674 260.19C199.674 262.761 201.758 264.845 204.329 264.845Z" fill="white"/>
<path d="M213.639 97.265C216.21 97.265 218.294 95.1808 218.294 92.61C218.294 90.0391 216.21 87.955 213.639 87.955C211.068 87.955 208.984 90.0391 208.984 92.61C208.984 95.1808 211.068 97.265 213.639 97.265Z" fill="white"/>
<path d="M213.639 115.885C216.21 115.885 218.294 113.801 218.294 111.23C218.294 108.659 216.21 106.575 213.639 106.575C211.068 106.575 208.984 108.659 208.984 111.23C208.984 113.801 211.068 115.885 213.639 115.885Z" fill="white"/>
<path d="M213.639 125.195C216.21 125.195 218.294 123.111 218.294 120.54C218.294 117.969 216.21 115.885 213.639 115.885C211.068 115.885 208.984 117.969 208.984 120.54C208.984 123.111 211.068 125.195 213.639 125.195Z" fill="white"/>
<path d="M213.639 143.815C216.21 143.815 218.294 141.731 218.294 139.16C218.294 136.589 216.21 134.505 213.639 134.505C211.068 134.505 208.984 136.589 208.984 139.16C208.984 141.731 211.068 143.815 213.639 143.815Z" fill="white"/>
<path d="M213.639 171.745C216.21 171.745 218.294 169.661 218.294 167.09C218.294 164.519 216.21 162.435 213.639 162.435C211.068 162.435 208.984 164.519 208.984 167.09C208.984 169.661 211.068 171.745 213.639 171.745Z" fill="white"/>
<path d="M213.639 181.055C216.21 181.055 218.294 178.971 218.294 176.4C218.294 173.829 216.21 171.745 213.639 171.745C211.068 171.745 208.984 173.829 208.984 176.4C208.984 178.971 211.068 181.055 213.639 181.055Z" fill="white"/>
<path d="M213.639 199.675C216.21 199.675 218.294 197.591 218.294 195.02C218.294 192.449 216.21 190.365 213.639 190.365C211.068 190.365 208.984 192.449 208.984 195.02C208.984 197.591 211.068 199.675 213.639 199.675Z" fill="white"/>
<path d="M213.639 208.985C216.21 208.985 218.294 206.901 218.294 204.33C218.294 201.759 216.21 199.675 213.639 199.675C211.068 199.675 208.984 201.759 208.984 204.33C208.984 206.901 211.068 208.985 213.639 208.985Z" fill="white"/>
<path d="M213.639 246.225C216.21 246.225 218.294 244.141 218.294 241.57C218.294 238.999 216.21 236.915 213.639 236.915C211.068 236.915 208.984 238.999 208.984 241.57C208.984 244.141 211.068 246.225 213.639 246.225Z" fill="white"/>
<path d="M213.639 274.155C216.21 274.155 218.294 272.071 218.294 269.5C218.294 266.929 216.21 264.845 213.639 264.845C211.068 264.845 208.984 266.929 208.984 269.5C208.984 272.071 211.068 274.155 213.639 274.155Z" fill="white"/>
<path d="M213.639 283.465C216.21 283.465 218.294 281.381 218.294 278.81C218.294 276.239 216.21 274.155 213.639 274.155C211.068 274.155 208.984 276.239 208.984 278.81C208.984 281.381 211.068 283.465 213.639 283.465Z" fill="white"/>
<path d="M222.95 97.265C225.521 97.265 227.605 95.1808 227.605 92.61C227.605 90.0391 225.521 87.955 222.95 87.955C220.379 87.955 218.295 90.0391 218.295 92.61C218.295 95.1808 220.379 97.265 222.95 97.265Z" fill="white"/>
<path d="M222.95 106.575C225.521 106.575 227.605 104.491 227.605 101.92C227.605 99.3491 225.521 97.265 222.95 97.265C220.379 97.265 218.295 99.3491 218.295 101.92C218.295 104.491 220.379 106.575 222.95 106.575Z" fill="white"/>
<path d="M222.95 143.815C225.521 143.815 227.605 141.731 227.605 139.16C227.605 136.589 225.521 134.505 222.95 134.505C220.379 134.505 218.295 136.589 218.295 139.16C218.295 141.731 220.379 143.815 222.95 143.815Z" fill="white"/>
<path d="M222.95 153.125C225.521 153.125 227.605 151.041 227.605 148.47C227.605 145.899 225.521 143.815 222.95 143.815C220.379 143.815 218.295 145.899 218.295 148.47C218.295 151.041 220.379 153.125 222.95 153.125Z" fill="white"/>
<path d="M222.95 171.745C225.521 171.745 227.605 169.661 227.605 167.09C227.605 164.519 225.521 162.435 222.95 162.435C220.379 162.435 218.295 164.519 218.295 167.09C218.295 169.661 220.379 171.745 222.95 171.745Z" fill="white"/>
<path d="M222.95 190.365C225.521 190.365 227.605 188.281 227.605 185.71C227.605 183.139 225.521 181.055 222.95 181.055C220.379 181.055 218.295 183.139 218.295 185.71C218.295 188.281 220.379 190.365 222.95 190.365Z" fill="white"/>
<path d="M222.95 208.985C225.521 208.985 227.605 206.901 227.605 204.33C227.605 201.759 225.521 199.675 222.95 199.675C220.379 199.675 218.295 201.759 218.295 204.33C218.295 206.901 220.379 208.985 222.95 208.985Z" fill="white"/>
<path d="M222.95 227.605C225.521 227.605 227.605 225.521 227.605 222.95C227.605 220.379 225.521 218.295 222.95 218.295C220.379 218.295 218.295 220.379 218.295 222.95C218.295 225.521 220.379 227.605 222.95 227.605Z" fill="white"/>
<path d="M222.95 246.225C225.521 246.225 227.605 244.141 227.605 241.57C227.605 238.999 225.521 236.915 222.95 236.915C220.379 236.915 218.295 238.999 218.295 241.57C218.295 244.141 220.379 246.225 222.95 246.225Z" fill="white"/>
<path d="M222.95 255.535C225.521 255.535 227.605 253.451 227.605 250.88C227.605 248.309 225.521 246.225 222.95 246.225C220.379 246.225 218.295 248.309 218.295 250.88C218.295 253.451 220.379 255.535 222.95 255.535Z" fill="white"/>
<path d="M222.95 264.845C225.521 264.845 227.605 262.761 227.605 260.19C227.605 257.619 225.521 255.535 222.95 255.535C220.379 255.535 218.295 257.619 218.295 260.19C218.295 262.761 220.379 264.845 222.95 264.845Z" fill="white"/>
<path d="M222.95 274.155C225.521 274.155 227.605 272.071 227.605 269.5C227.605 266.929 225.521 264.845 222.95 264.845C220.379 264.845 218.295 266.929 218.295 269.5C218.295 272.071 220.379 274.155 222.95 274.155Z" fill="white"/>
<path d="M232.26 97.265C234.831 97.265 236.915 95.1808 236.915 92.61C236.915 90.0391 234.831 87.955 232.26 87.955C229.69 87.955 227.605 90.0391 227.605 92.61C227.605 95.1808 229.69 97.265 232.26 97.265Z" fill="white"/>
<path d="M232.26 106.575C234.831 106.575 236.915 104.491 236.915 101.92C236.915 99.3491 234.831 97.265 232.26 97.265C229.69 97.265 227.605 99.3491 227.605 101.92C227.605 104.491 229.69 106.575 232.26 106.575Z" fill="white"/>
<path d="M232.26 134.505C234.831 134.505 236.915 132.421 236.915 129.85C236.915 127.279 234.831 125.195 232.26 125.195C229.69 125.195 227.605 127.279 227.605 129.85C227.605 132.421 229.69 134.505 232.26 134.505Z" fill="white"/>
<path d="M232.26 153.125C234.831 153.125 236.915 151.041 236.915 148.47C236.915 145.899 234.831 143.815 232.26 143.815C229.69 143.815 227.605 145.899 227.605 148.47C227.605 151.041 229.69 153.125 232.26 153.125Z" fill="white"/>
<path d="M232.26 190.365C234.831 190.365 236.915 188.281 236.915 185.71C236.915 183.139 234.831 181.055 232.26 181.055C229.69 181.055 227.605 183.139 227.605 185.71C227.605 188.281 229.69 190.365 232.26 190.365Z" fill="white"/>
<path d="M232.26 208.985C234.831 208.985 236.915 206.901 236.915 204.33C236.915 201.759 234.831 199.675 232.26 199.675C229.69 199.675 227.605 201.759 227.605 204.33C227.605 206.901 229.69 208.985 232.26 208.985Z" fill="white"/>
<path d="M232.26 246.225C234.831 246.225 236.915 244.141 236.915 241.57C236.915 238.999 234.831 236.915 232.26 236.915C229.69 236.915 227.605 238.999 227.605 241.57C227.605 244.141 229.69 246.225 232.26 246.225Z" fill="white"/>
<path d="M232.26 264.845C234.831 264.845 236.915 262.761 236.915 260.19C236.915 257.619 234.831 255.535 232.26 255.535C229.69 255.535 227.605 257.619 227.605 260.19C227.605 262.761 229.69 264.845 232.26 264.845Z" fill="white"/>
<path d="M232.26 283.465C234.831 283.465 236.915 281.381 236.915 278.81C236.915 276.239 234.831 274.155 232.26 274.155C229.69 274.155 227.605 276.239 227.605 278.81C227.605 281.381 229.69 283.465 232.26 283.465Z" fill="white"/>
<path d="M241.569 106.575C244.14 106.575 246.224 104.491 246.224 101.92C246.224 99.3491 244.14 97.265 241.569 97.265C238.998 97.265 236.914 99.3491 236.914 101.92C236.914 104.491 238.998 106.575 241.569 106.575Z" fill="white"/>
<path d="M241.569 125.195C244.14 125.195 246.224 123.111 246.224 120.54C246.224 117.969 244.14 115.885 241.569 115.885C238.998 115.885 236.914 117.969 236.914 120.54C236.914 123.111 238.998 125.195 241.569 125.195Z" fill="white"/>
<path d="M241.569 134.505C244.14 134.505 246.224 132.421 246.224 129.85C246.224 127.279 244.14 125.195 241.569 125.195C238.998 125.195 236.914 127.279 236.914 129.85C236.914 132.421 238.998 134.505 241.569 134.505Z" fill="white"/>
<path d="M241.569 143.815C244.14 143.815 246.224 141.731 246.224 139.16C246.224 136.589 244.14 134.505 241.569 134.505C238.998 134.505 236.914 136.589 236.914 139.16C236.914 141.731 238.998 143.815 241.569 143.815Z" fill="white"/>
<path d="M241.569 153.125C244.14 153.125 246.224 151.041 246.224 148.47C246.224 145.899 244.14 143.815 241.569 143.815C238.998 143.815 236.914 145.899 236.914 148.47C236.914 151.041 238.998 153.125 241.569 153.125Z" fill="white"/>
<path d="M241.569 171.745C244.14 171.745 246.224 169.661 246.224 167.09C246.224 164.519 244.14 162.435 241.569 162.435C238.998 162.435 236.914 164.519 236.914 167.09C236.914 169.661 238.998 171.745 241.569 171.745Z" fill="white"/>
<path d="M241.569 190.365C244.14 190.365 246.224 188.281 246.224 185.71C246.224 183.139 244.14 181.055 241.569 181.055C238.998 181.055 236.914 183.139 236.914 185.71C236.914 188.281 238.998 190.365 241.569 190.365Z" fill="white"/>
<path d="M241.569 208.985C244.14 208.985 246.224 206.901 246.224 204.33C246.224 201.759 244.14 199.675 241.569 199.675C238.998 199.675 236.914 201.759 236.914 204.33C236.914 206.901 238.998 208.985 241.569 208.985Z" fill="white"/>
<path d="M241.569 218.295C244.14 218.295 246.224 216.211 246.224 213.64C246.224 211.069 244.14 208.985 241.569 208.985C238.998 208.985 236.914 211.069 236.914 213.64C236.914 216.211 238.998 218.295 241.569 218.295Z" fill="white"/>
<path d="M241.569 227.605C244.14 227.605 246.224 225.521 246.224 222.95C246.224 220.379 244.14 218.295 241.569 218.295C238.998 218.295 236.914 220.379 236.914 222.95C236.914 225.521 238.998 227.605 241.569 227.605Z" fill="white"/>
<path d="M241.569 236.915C244.14 236.915 246.224 234.831 246.224 232.26C246.224 229.689 244.14 227.605 241.569 227.605C238.998 227.605 236.914 229.689 236.914 232.26C236.914 234.831 238.998 236.915 241.569 236.915Z" fill="white"/>
<path d="M241.569 246.225C244.14 246.225 246.224 244.141 246.224 241.57C246.224 238.999 244.14 236.915 241.569 236.915C238.998 236.915 236.914 238.999 236.914 241.57C236.914 244.141 238.998 246.225 241.569 246.225Z" fill="white"/>
<path d="M241.569 255.535C244.14 255.535 246.224 253.451 246.224 250.88C246.224 248.309 244.14 246.225 241.569 246.225C238.998 246.225 236.914 248.309 236.914 250.88C236.914 253.451 238.998 255.535 241.569 255.535Z" fill="white"/>
<path d="M241.569 274.155C244.14 274.155 246.224 272.071 246.224 269.5C246.224 266.929 244.14 264.845 241.569 264.845C238.998 264.845 236.914 266.929 236.914 269.5C236.914 272.071 238.998 274.155 241.569 274.155Z" fill="white"/>
<path d="M250.88 97.265C253.45 97.265 255.535 95.1808 255.535 92.61C255.535 90.0391 253.45 87.955 250.88 87.955C248.309 87.955 246.225 90.0391 246.225 92.61C246.225 95.1808 248.309 97.265 250.88 97.265Z" fill="white"/>
<path d="M250.88 106.575C253.45 106.575 255.535 104.491 255.535 101.92C255.535 99.3491 253.45 97.265 250.88 97.265C248.309 97.265 246.225 99.3491 246.225 101.92C246.225 104.491 248.309 106.575 250.88 106.575Z" fill="white"/>
<path d="M250.88 115.885C253.45 115.885 255.535 113.801 255.535 111.23C255.535 108.659 253.45 106.575 250.88 106.575C248.309 106.575 246.225 108.659 246.225 111.23C246.225 113.801 248.309 115.885 250.88 115.885Z" fill="white"/>
<path d="M250.88 125.195C253.45 125.195 255.535 123.111 255.535 120.54C255.535 117.969 253.45 115.885 250.88 115.885C248.309 115.885 246.225 117.969 246.225 120.54C246.225 123.111 248.309 125.195 250.88 125.195Z" fill="white"/>
<path d="M250.88 134.505C253.45 134.505 255.535 132.421 255.535 129.85C255.535 127.279 253.45 125.195 250.88 125.195C248.309 125.195 246.225 127.279 246.225 129.85C246.225 132.421 248.309 134.505 250.88 134.505Z" fill="white"/>
<path d="M250.88 153.125C253.45 153.125 255.535 151.041 255.535 148.47C255.535 145.899 253.45 143.815 250.88 143.815C248.309 143.815 246.225 145.899 246.225 148.47C246.225 151.041 248.309 153.125 250.88 153.125Z" fill="white"/>
<path d="M250.88 162.435C253.45 162.435 255.535 160.351 255.535 157.78C255.535 155.209 253.45 153.125 250.88 153.125C248.309 153.125 246.225 155.209 246.225 157.78C246.225 160.351 248.309 162.435 250.88 162.435Z" fill="white"/>
<path d="M250.88 190.365C253.45 190.365 255.535 188.281 255.535 185.71C255.535 183.139 253.45 181.055 250.88 181.055C248.309 181.055 246.225 183.139 246.225 185.71C246.225 188.281 248.309 190.365 250.88 190.365Z" fill="white"/>
<path d="M250.88 199.675C253.45 199.675 255.535 197.591 255.535 195.02C255.535 192.449 253.45 190.365 250.88 190.365C248.309 190.365 246.225 192.449 246.225 195.02C246.225 197.591 248.309 199.675 250.88 199.675Z" fill="white"/>
<path d="M250.88 208.985C253.45 208.985 255.535 206.901 255.535 204.33C255.535 201.759 253.45 199.675 250.88 199.675C248.309 199.675 246.225 201.759 246.225 204.33C246.225 206.901 248.309 208.985 250.88 208.985Z" fill="white"/>
<path d="M250.88 218.295C253.45 218.295 255.535 216.211 255.535 213.64C255.535 211.069 253.45 208.985 250.88 208.985C248.309 208.985 246.225 211.069 246.225 213.64C246.225 216.211 248.309 218.295 250.88 218.295Z" fill="white"/>
<path d="M250.88 227.605C253.45 227.605 255.535 225.521 255.535 222.95C255.535 220.379 253.45 218.295 250.88 218.295C248.309 218.295 246.225 220.379 246.225 222.95C246.225 225.521 248.309 227.605 250.88 227.605Z" fill="white"/>
<path d="M250.88 246.225C253.45 246.225 255.535 244.141 255.535 241.57C255.535 238.999 253.45 236.915 250.88 236.915C248.309 236.915 246.225 238.999 246.225 241.57C246.225 244.141 248.309 246.225 250.88 246.225Z" fill="white"/>
<path d="M250.88 255.535C253.45 255.535 255.535 253.451 255.535 250.88C255.535 248.309 253.45 246.225 250.88 246.225C248.309 246.225 246.225 248.309 246.225 250.88C246.225 253.451 248.309 255.535 250.88 255.535Z" fill="white"/>
<path d="M250.88 283.465C253.45 283.465 255.535 281.381 255.535 278.81C255.535 276.239 253.45 274.155 250.88 274.155C248.309 274.155 246.225 276.239 246.225 278.81C246.225 281.381 248.309 283.465 250.88 283.465Z" fill="white"/>
<path d="M260.19 106.575C262.761 106.575 264.845 104.491 264.845 101.92C264.845 99.3491 262.761 97.265 260.19 97.265C257.619 97.265 255.535 99.3491 255.535 101.92C255.535 104.491 257.619 106.575 260.19 106.575Z" fill="white"/>
<path d="M260.19 115.885C262.761 115.885 264.845 113.801 264.845 111.23C264.845 108.659 262.761 106.575 260.19 106.575C257.619 106.575 255.535 108.659 255.535 111.23C255.535 113.801 257.619 115.885 260.19 115.885Z" fill="white"/>
<path d="M260.19 125.195C262.761 125.195 264.845 123.111 264.845 120.54C264.845 117.969 262.761 115.885 260.19 115.885C257.619 115.885 255.535 117.969 255.535 120.54C255.535 123.111 257.619 125.195 260.19 125.195Z" fill="white"/>
<path d="M260.19 143.815C262.761 143.815 264.845 141.731 264.845 139.16C264.845 136.589 262.761 134.505 260.19 134.505C257.619 134.505 255.535 136.589 255.535 139.16C255.535 141.731 257.619 143.815 260.19 143.815Z" fill="white"/>
<path d="M260.19 153.125C262.761 153.125 264.845 151.041 264.845 148.47C264.845 145.899 262.761 143.815 260.19 143.815C257.619 143.815 255.535 145.899 255.535 148.47C255.535 151.041 257.619 153.125 260.19 153.125Z" fill="white"/>
<path d="M260.19 162.435C262.761 162.435 264.845 160.351 264.845 157.78C264.845 155.209 262.761 153.125 260.19 153.125C257.619 153.125 255.535 155.209 255.535 157.78C255.535 160.351 257.619 162.435 260.19 162.435Z" fill="white"/>
<path d="M260.19 171.745C262.761 171.745 264.845 169.661 264.845 167.09C264.845 164.519 262.761 162.435 260.19 162.435C257.619 162.435 255.535 164.519 255.535 167.09C255.535 169.661 257.619 171.745 260.19 171.745Z" fill="white"/>
<path d="M260.19 199.675C262.761 199.675 264.845 197.591 264.845 195.02C264.845 192.449 262.761 190.365 260.19 190.365C257.619 190.365 255.535 192.449 255.535 195.02C255.535 197.591 257.619 199.675 260.19 199.675Z" fill="white"/>
<path d="M260.19 208.985C262.761 208.985 264.845 206.901 264.845 204.33C264.845 201.759 262.761 199.675 260.19 199.675C257.619 199.675 255.535 201.759 255.535 204.33C255.535 206.901 257.619 208.985 260.19 208.985Z" fill="white"/>
<path d="M260.19 246.225C262.761 246.225 264.845 244.141 264.845 241.57C264.845 238.999 262.761 236.915 260.19 236.915C257.619 236.915 255.535 238.999 255.535 241.57C255.535 244.141 257.619 246.225 260.19 246.225Z" fill="white"/>
<path d="M260.19 264.845C262.761 264.845 264.845 262.761 264.845 260.19C264.845 257.619 262.761 255.535 260.19 255.535C257.619 255.535 255.535 257.619 255.535 260.19C255.535 262.761 257.619 264.845 260.19 264.845Z" fill="white"/>
<path d="M260.19 283.465C262.761 283.465 264.845 281.381 264.845 278.81C264.845 276.239 262.761 274.155 260.19 274.155C257.619 274.155 255.535 276.239 255.535 278.81C255.535 281.381 257.619 283.465 260.19 283.465Z" fill="white"/>
<path d="M269.499 97.265C272.07 97.265 274.154 95.1808 274.154 92.61C274.154 90.0391 272.07 87.955 269.499 87.955C266.928 87.955 264.844 90.0391 264.844 92.61C264.844 95.1808 266.928 97.265 269.499 97.265Z" fill="white"/>
<path d="M269.499 106.575C272.07 106.575 274.154 104.491 274.154 101.92C274.154 99.3491 272.07 97.265 269.499 97.265C266.928 97.265 264.844 99.3491 264.844 101.92C264.844 104.491 266.928 106.575 269.499 106.575Z" fill="white"/>
<path d="M269.499 115.885C272.07 115.885 274.154 113.801 274.154 111.23C274.154 108.659 272.07 106.575 269.499 106.575C266.928 106.575 264.844 108.659 264.844 111.23C264.844 113.801 266.928 115.885 269.499 115.885Z" fill="white"/>
<path d="M269.499 143.815C272.07 143.815 274.154 141.731 274.154 139.16C274.154 136.589 272.07 134.505 269.499 134.505C266.928 134.505 264.844 136.589 264.844 139.16C264.844 141.731 266.928 143.815 269.499 143.815Z" fill="white"/>
<path d="M269.499 153.125C272.07 153.125 274.154 151.041 274.154 148.47C274.154 145.899 272.07 143.815 269.499 143.815C266.928 143.815 264.844 145.899 264.844 148.47C264.844 151.041 266.928 153.125 269.499 153.125Z" fill="white"/>
<path d="M269.499 171.745C272.07 171.745 274.154 169.661 274.154 167.09C274.154 164.519 272.07 162.435 269.499 162.435C266.928 162.435 264.844 164.519 264.844 167.09C264.844 169.661 266.928 171.745 269.499 171.745Z" fill="white"/>
<path d="M269.499 181.055C272.07 181.055 274.154 178.971 274.154 176.4C274.154 173.829 272.07 171.745 269.499 171.745C266.928 171.745 264.844 173.829 264.844 176.4C264.844 178.971 266.928 181.055 269.499 181.055Z" fill="white"/>
<path d="M269.499 208.985C272.07 208.985 274.154 206.901 274.154 204.33C274.154 201.759 272.07 199.675 269.499 199.675C266.928 199.675 264.844 201.759 264.844 204.33C264.844 206.901 266.928 208.985 269.499 208.985Z" fill="white"/>
<path d="M269.499 218.295C272.07 218.295 274.154 216.211 274.154 213.64C274.154 211.069 272.07 208.985 269.499 208.985C266.928 208.985 264.844 211.069 264.844 213.64C264.844 216.211 266.928 218.295 269.499 218.295Z" fill="white"/>
<path d="M269.499 227.605C272.07 227.605 274.154 225.521 274.154 222.95C274.154 220.379 272.07 218.295 269.499 218.295C266.928 218.295 264.844 220.379 264.844 222.95C264.844 225.521 266.928 227.605 269.499 227.605Z" fill="white"/>
<path d="M269.499 236.915C272.07 236.915 274.154 234.831 274.154 232.26C274.154 229.689 272.07 227.605 269.499 227.605C266.928 227.605 264.844 229.689 264.844 232.26C264.844 234.831 266.928 236.915 269.499 236.915Z" fill="white"/>
<path d="M269.499 274.155C272.07 274.155 274.154 272.071 274.154 269.5C274.154 266.929 272.07 264.845 269.499 264.845C266.928 264.845 264.844 266.929 264.844 269.5C264.844 272.071 266.928 274.155 269.499 274.155Z" fill="white"/>
<path d="M278.809 106.575C281.38 106.575 283.464 104.491 283.464 101.92C283.464 99.3491 281.38 97.265 278.809 97.265C276.238 97.265 274.154 99.3491 274.154 101.92C274.154 104.491 276.238 106.575 278.809 106.575Z" fill="white"/>
<path d="M278.809 115.885C281.38 115.885 283.464 113.801 283.464 111.23C283.464 108.659 281.38 106.575 278.809 106.575C276.238 106.575 274.154 108.659 274.154 111.23C274.154 113.801 276.238 115.885 278.809 115.885Z" fill="white"/>
<path d="M278.809 125.195C281.38 125.195 283.464 123.111 283.464 120.54C283.464 117.969 281.38 115.885 278.809 115.885C276.238 115.885 274.154 117.969 274.154 120.54C274.154 123.111 276.238 125.195 278.809 125.195Z" fill="white"/>
<path d="M278.809 143.815C281.38 143.815 283.464 141.731 283.464 139.16C283.464 136.589 281.38 134.505 278.809 134.505C276.238 134.505 274.154 136.589 274.154 139.16C274.154 141.731 276.238 143.815 278.809 143.815Z" fill="white"/>
<path d="M278.809 162.435C281.38 162.435 283.464 160.351 283.464 157.78C283.464 155.209 281.38 153.125 278.809 153.125C276.238 153.125 274.154 155.209 274.154 157.78C274.154 160.351 276.238 162.435 278.809 162.435Z" fill="white"/>
<path d="M278.809 181.055C281.38 181.055 283.464 178.971 283.464 176.4C283.464 173.829 281.38 171.745 278.809 171.745C276.238 171.745 274.154 173.829 274.154 176.4C274.154 178.971 276.238 181.055 278.809 181.055Z" fill="white"/>
<path d="M278.809 208.985C281.38 208.985 283.464 206.901 283.464 204.33C283.464 201.759 281.38 199.675 278.809 199.675C276.238 199.675 274.154 201.759 274.154 204.33C274.154 206.901 276.238 208.985 278.809 208.985Z" fill="white"/>
<path d="M278.809 227.605C281.38 227.605 283.464 225.521 283.464 222.95C283.464 220.379 281.38 218.295 278.809 218.295C276.238 218.295 274.154 220.379 274.154 222.95C274.154 225.521 276.238 227.605 278.809 227.605Z" fill="white"/>
<path d="M278.809 274.155C281.38 274.155 283.464 272.071 283.464 269.5C283.464 266.929 281.38 264.845 278.809 264.845C276.238 264.845 274.154 266.929 274.154 269.5C274.154 272.071 276.238 274.155 278.809 274.155Z" fill="white"/>
<path d="M278.809 246.225C281.38 246.225 283.464 244.141 283.464 241.57C283.464 238.999 281.38 236.915 278.809 236.915C276.238 236.915 274.154 238.999 274.154 241.57C274.154 244.141 276.238 246.225 278.809 246.225Z" fill="white"/>
</mask>
<g mask="url(#mask0_236_3223)">
<path d="M283.465 13.475H13.4746V283.465H283.465V13.475Z" fill="url(#paint0_linear_236_3223)"/>
</g>
<path d="M18.1296 22.785C20.7005 22.785 22.7846 20.7009 22.7846 18.13C22.7846 15.5591 20.7005 13.475 18.1296 13.475C15.5587 13.475 13.4746 15.5591 13.4746 18.13C13.4746 20.7009 15.5587 22.785 18.1296 22.785Z" fill="black"/>
<path d="M18.1296 32.095C20.7005 32.095 22.7846 30.0109 22.7846 27.44C22.7846 24.8691 20.7005 22.785 18.1296 22.785C15.5587 22.785 13.4746 24.8691 13.4746 27.44C13.4746 30.0109 15.5587 32.095 18.1296 32.095Z" fill="black"/>
<path d="M18.1296 41.405C20.7005 41.405 22.7846 39.3209 22.7846 36.75C22.7846 34.1791 20.7005 32.095 18.1296 32.095C15.5587 32.095 13.4746 34.1791 13.4746 36.75C13.4746 39.3209 15.5587 41.405 18.1296 41.405Z" fill="black"/>
<path d="M18.1296 50.715C20.7005 50.715 22.7846 48.6309 22.7846 46.06C22.7846 43.4891 20.7005 41.405 18.1296 41.405C15.5587 41.405 13.4746 43.4891 13.4746 46.06C13.4746 48.6309 15.5587 50.715 18.1296 50.715Z" fill="black"/>
<path d="M18.1296 60.025C20.7005 60.025 22.7846 57.9409 22.7846 55.37C22.7846 52.7991 20.7005 50.715 18.1296 50.715C15.5587 50.715 13.4746 52.7991 13.4746 55.37C13.4746 57.9409 15.5587 60.025 18.1296 60.025Z" fill="black"/>
<path d="M18.1296 69.335C20.7005 69.335 22.7846 67.2509 22.7846 64.68C22.7846 62.1091 20.7005 60.025 18.1296 60.025C15.5587 60.025 13.4746 62.1091 13.4746 64.68C13.4746 67.2509 15.5587 69.335 18.1296 69.335Z" fill="black"/>
<path d="M18.1296 78.645C20.7005 78.645 22.7846 76.5608 22.7846 73.99C22.7846 71.4191 20.7005 69.335 18.1296 69.335C15.5587 69.335 13.4746 71.4191 13.4746 73.99C13.4746 76.5608 15.5587 78.645 18.1296 78.645Z" fill="black"/>
<path d="M27.4402 22.785C30.011 22.785 32.0952 20.7009 32.0952 18.13C32.0952 15.5591 30.011 13.475 27.4402 13.475C24.8693 13.475 22.7852 15.5591 22.7852 18.13C22.7852 20.7009 24.8693 22.785 27.4402 22.785Z" fill="black"/>
<path d="M27.4402 78.645C30.011 78.645 32.0952 76.5608 32.0952 73.99C32.0952 71.4191 30.011 69.335 27.4402 69.335C24.8693 69.335 22.7852 71.4191 22.7852 73.99C22.7852 76.5608 24.8693 78.645 27.4402 78.645Z" fill="black"/>
<path d="M36.7487 22.785C39.3196 22.785 41.4037 20.7009 41.4037 18.13C41.4037 15.5591 39.3196 13.475 36.7487 13.475C34.1779 13.475 32.0938 15.5591 32.0938 18.13C32.0938 20.7009 34.1779 22.785 36.7487 22.785Z" fill="black"/>
<path d="M36.7487 78.645C39.3196 78.645 41.4037 76.5608 41.4037 73.99C41.4037 71.4191 39.3196 69.335 36.7487 69.335C34.1779 69.335 32.0938 71.4191 32.0938 73.99C32.0938 76.5608 34.1779 78.645 36.7487 78.645Z" fill="black"/>
<path d="M46.0593 22.785C48.6302 22.785 50.7143 20.7009 50.7143 18.13C50.7143 15.5591 48.6302 13.475 46.0593 13.475C43.4884 13.475 41.4043 15.5591 41.4043 18.13C41.4043 20.7009 43.4884 22.785 46.0593 22.785Z" fill="black"/>
<path d="M46.0593 78.645C48.6302 78.645 50.7143 76.5608 50.7143 73.99C50.7143 71.4191 48.6302 69.335 46.0593 69.335C43.4884 69.335 41.4043 71.4191 41.4043 73.99C41.4043 76.5608 43.4884 78.645 46.0593 78.645Z" fill="black"/>
<path d="M55.3698 22.785C57.9407 22.785 60.0248 20.7009 60.0248 18.13C60.0248 15.5591 57.9407 13.475 55.3698 13.475C52.799 13.475 50.7148 15.5591 50.7148 18.13C50.7148 20.7009 52.799 22.785 55.3698 22.785Z" fill="black"/>
<path d="M55.3698 78.645C57.9407 78.645 60.0248 76.5608 60.0248 73.99C60.0248 71.4191 57.9407 69.335 55.3698 69.335C52.799 69.335 50.7148 71.4191 50.7148 73.99C50.7148 76.5608 52.799 78.645 55.3698 78.645Z" fill="black"/>
<path d="M64.6804 22.785C67.2513 22.785 69.3354 20.7009 69.3354 18.13C69.3354 15.5591 67.2513 13.475 64.6804 13.475C62.1095 13.475 60.0254 15.5591 60.0254 18.13C60.0254 20.7009 62.1095 22.785 64.6804 22.785Z" fill="black"/>
<path d="M64.6804 78.645C67.2513 78.645 69.3354 76.5608 69.3354 73.99C69.3354 71.4191 67.2513 69.335 64.6804 69.335C62.1095 69.335 60.0254 71.4191 60.0254 73.99C60.0254 76.5608 62.1095 78.645 64.6804 78.645Z" fill="black"/>
<path d="M73.989 22.785C76.5599 22.785 78.644 20.7009 78.644 18.13C78.644 15.5591 76.5599 13.475 73.989 13.475C71.4181 13.475 69.334 15.5591 69.334 18.13C69.334 20.7009 71.4181 22.785 73.989 22.785Z" fill="black"/>
<path d="M73.989 32.095C76.5599 32.095 78.644 30.0109 78.644 27.44C78.644 24.8691 76.5599 22.785 73.989 22.785C71.4181 22.785 69.334 24.8691 69.334 27.44C69.334 30.0109 71.4181 32.095 73.989 32.095Z" fill="black"/>
<path d="M73.989 41.405C76.5599 41.405 78.644 39.3209 78.644 36.75C78.644 34.1791 76.5599 32.095 73.989 32.095C71.4181 32.095 69.334 34.1791 69.334 36.75C69.334 39.3209 71.4181 41.405 73.989 41.405Z" fill="black"/>
<path d="M73.989 50.715C76.5599 50.715 78.644 48.6309 78.644 46.06C78.644 43.4891 76.5599 41.405 73.989 41.405C71.4181 41.405 69.334 43.4891 69.334 46.06C69.334 48.6309 71.4181 50.715 73.989 50.715Z" fill="black"/>
<path d="M73.989 60.025C76.5599 60.025 78.644 57.9409 78.644 55.37C78.644 52.7991 76.5599 50.715 73.989 50.715C71.4181 50.715 69.334 52.7991 69.334 55.37C69.334 57.9409 71.4181 60.025 73.989 60.025Z" fill="black"/>
<path d="M73.989 69.335C76.5599 69.335 78.644 67.2509 78.644 64.68C78.644 62.1091 76.5599 60.025 73.989 60.025C71.4181 60.025 69.334 62.1091 69.334 64.68C69.334 67.2509 71.4181 69.335 73.989 69.335Z" fill="black"/>
<path d="M73.989 78.645C76.5599 78.645 78.644 76.5608 78.644 73.99C78.644 71.4191 76.5599 69.335 73.989 69.335C71.4181 69.335 69.334 71.4191 69.334 73.99C69.334 76.5608 71.4181 78.645 73.989 78.645Z" fill="black"/>
<path d="M36.7507 41.405C39.3216 41.405 41.4057 39.3209 41.4057 36.75C41.4057 34.1791 39.3216 32.095 36.7507 32.095C34.1798 32.095 32.0957 34.1791 32.0957 36.75C32.0957 39.3209 34.1798 41.405 36.7507 41.405Z" fill="black"/>
<path d="M36.7507 50.715C39.3216 50.715 41.4057 48.6309 41.4057 46.06C41.4057 43.4891 39.3216 41.405 36.7507 41.405C34.1798 41.405 32.0957 43.4891 32.0957 46.06C32.0957 48.6309 34.1798 50.715 36.7507 50.715Z" fill="black"/>
<path d="M36.7507 60.025C39.3216 60.025 41.4057 57.9409 41.4057 55.37C41.4057 52.7991 39.3216 50.715 36.7507 50.715C34.1798 50.715 32.0957 52.7991 32.0957 55.37C32.0957 57.9409 34.1798 60.025 36.7507 60.025Z" fill="black"/>
<path d="M46.0612 41.405C48.6321 41.405 50.7162 39.3209 50.7162 36.75C50.7162 34.1791 48.6321 32.095 46.0612 32.095C43.4904 32.095 41.4062 34.1791 41.4062 36.75C41.4062 39.3209 43.4904 41.405 46.0612 41.405Z" fill="black"/>
<path d="M46.0612 50.715C48.6321 50.715 50.7162 48.6309 50.7162 46.06C50.7162 43.4891 48.6321 41.405 46.0612 41.405C43.4904 41.405 41.4062 43.4891 41.4062 46.06C41.4062 48.6309 43.4904 50.715 46.0612 50.715Z" fill="black"/>
<path d="M46.0612 60.025C48.6321 60.025 50.7162 57.9409 50.7162 55.37C50.7162 52.7991 48.6321 50.715 46.0612 50.715C43.4904 50.715 41.4062 52.7991 41.4062 55.37C41.4062 57.9409 43.4904 60.025 46.0612 60.025Z" fill="black"/>
<path d="M55.3698 41.405C57.9407 41.405 60.0248 39.3209 60.0248 36.75C60.0248 34.1791 57.9407 32.095 55.3698 32.095C52.799 32.095 50.7148 34.1791 50.7148 36.75C50.7148 39.3209 52.799 41.405 55.3698 41.405Z" fill="black"/>
<path d="M55.3698 50.715C57.9407 50.715 60.0248 48.6309 60.0248 46.06C60.0248 43.4891 57.9407 41.405 55.3698 41.405C52.799 41.405 50.7148 43.4891 50.7148 46.06C50.7148 48.6309 52.799 50.715 55.3698 50.715Z" fill="black"/>
<path d="M55.3698 60.025C57.9407 60.025 60.0248 57.9409 60.0248 55.37C60.0248 52.7991 57.9407 50.715 55.3698 50.715C52.799 50.715 50.7148 52.7991 50.7148 55.37C50.7148 57.9409 52.799 60.025 55.3698 60.025Z" fill="black"/>
<path d="M222.95 22.785C225.521 22.785 227.605 20.7009 227.605 18.13C227.605 15.5591 225.521 13.475 222.95 13.475C220.379 13.475 218.295 15.5591 218.295 18.13C218.295 20.7009 220.379 22.785 222.95 22.785Z" fill="black"/>
<path d="M222.95 32.095C225.521 32.095 227.605 30.0109 227.605 27.44C227.605 24.8691 225.521 22.785 222.95 22.785C220.379 22.785 218.295 24.8691 218.295 27.44C218.295 30.0109 220.379 32.095 222.95 32.095Z" fill="black"/>
<path d="M222.95 41.405C225.521 41.405 227.605 39.3209 227.605 36.75C227.605 34.1791 225.521 32.095 222.95 32.095C220.379 32.095 218.295 34.1791 218.295 36.75C218.295 39.3209 220.379 41.405 222.95 41.405Z" fill="black"/>
<path d="M222.95 50.715C225.521 50.715 227.605 48.6309 227.605 46.06C227.605 43.4891 225.521 41.405 222.95 41.405C220.379 41.405 218.295 43.4891 218.295 46.06C218.295 48.6309 220.379 50.715 222.95 50.715Z" fill="black"/>
<path d="M222.95 60.025C225.521 60.025 227.605 57.9409 227.605 55.37C227.605 52.7991 225.521 50.715 222.95 50.715C220.379 50.715 218.295 52.7991 218.295 55.37C218.295 57.9409 220.379 60.025 222.95 60.025Z" fill="black"/>
<path d="M222.95 69.335C225.521 69.335 227.605 67.2509 227.605 64.68C227.605 62.1091 225.521 60.025 222.95 60.025C220.379 60.025 218.295 62.1091 218.295 64.68C218.295 67.2509 220.379 69.335 222.95 69.335Z" fill="black"/>
<path d="M222.95 78.645C225.521 78.645 227.605 76.5608 227.605 73.99C227.605 71.4191 225.521 69.335 222.95 69.335C220.379 69.335 218.295 71.4191 218.295 73.99C218.295 76.5608 220.379 78.645 222.95 78.645Z" fill="black"/>
<path d="M232.26 22.785C234.831 22.785 236.915 20.7009 236.915 18.13C236.915 15.5591 234.831 13.475 232.26 13.475C229.69 13.475 227.605 15.5591 227.605 18.13C227.605 20.7009 229.69 22.785 232.26 22.785Z" fill="black"/>
<path d="M232.26 78.645C234.831 78.645 236.915 76.5608 236.915 73.99C236.915 71.4191 234.831 69.335 232.26 69.335C229.69 69.335 227.605 71.4191 227.605 73.99C227.605 76.5608 229.69 78.645 232.26 78.645Z" fill="black"/>
<path d="M241.569 22.785C244.14 22.785 246.224 20.7009 246.224 18.13C246.224 15.5591 244.14 13.475 241.569 13.475C238.998 13.475 236.914 15.5591 236.914 18.13C236.914 20.7009 238.998 22.785 241.569 22.785Z" fill="black"/>
<path d="M241.569 78.645C244.14 78.645 246.224 76.5608 246.224 73.99C246.224 71.4191 244.14 69.335 241.569 69.335C238.998 69.335 236.914 71.4191 236.914 73.99C236.914 76.5608 238.998 78.645 241.569 78.645Z" fill="black"/>
<path d="M250.88 22.785C253.45 22.785 255.535 20.7009 255.535 18.13C255.535 15.5591 253.45 13.475 250.88 13.475C248.309 13.475 246.225 15.5591 246.225 18.13C246.225 20.7009 248.309 22.785 250.88 22.785Z" fill="black"/>
<path d="M250.88 78.645C253.45 78.645 255.535 76.5608 255.535 73.99C255.535 71.4191 253.45 69.335 250.88 69.335C248.309 69.335 246.225 71.4191 246.225 73.99C246.225 76.5608 248.309 78.645 250.88 78.645Z" fill="black"/>
<path d="M260.19 22.785C262.761 22.785 264.845 20.7009 264.845 18.13C264.845 15.5591 262.761 13.475 260.19 13.475C257.619 13.475 255.535 15.5591 255.535 18.13C255.535 20.7009 257.619 22.785 260.19 22.785Z" fill="black"/>
<path d="M260.19 78.645C262.761 78.645 264.845 76.5608 264.845 73.99C264.845 71.4191 262.761 69.335 260.19 69.335C257.619 69.335 255.535 71.4191 255.535 73.99C255.535 76.5608 257.619 78.645 260.19 78.645Z" fill="black"/>
<path d="M269.501 22.785C272.072 22.785 274.156 20.7009 274.156 18.13C274.156 15.5591 272.072 13.475 269.501 13.475C266.93 13.475 264.846 15.5591 264.846 18.13C264.846 20.7009 266.93 22.785 269.501 22.785Z" fill="black"/>
<path d="M269.501 78.645C272.072 78.645 274.156 76.5608 274.156 73.99C274.156 71.4191 272.072 69.335 269.501 69.335C266.93 69.335 264.846 71.4191 264.846 73.99C264.846 76.5608 266.93 78.645 269.501 78.645Z" fill="black"/>
<path d="M278.809 22.785C281.38 22.785 283.464 20.7009 283.464 18.13C283.464 15.5591 281.38 13.475 278.809 13.475C276.238 13.475 274.154 15.5591 274.154 18.13C274.154 20.7009 276.238 22.785 278.809 22.785Z" fill="black"/>
<path d="M278.809 32.095C281.38 32.095 283.464 30.0109 283.464 27.44C283.464 24.8691 281.38 22.785 278.809 22.785C276.238 22.785 274.154 24.8691 274.154 27.44C274.154 30.0109 276.238 32.095 278.809 32.095Z" fill="black"/>
<path d="M278.809 41.405C281.38 41.405 283.464 39.3209 283.464 36.75C283.464 34.1791 281.38 32.095 278.809 32.095C276.238 32.095 274.154 34.1791 274.154 36.75C274.154 39.3209 276.238 41.405 278.809 41.405Z" fill="black"/>
<path d="M278.809 50.715C281.38 50.715 283.464 48.6309 283.464 46.06C283.464 43.4891 281.38 41.405 278.809 41.405C276.238 41.405 274.154 43.4891 274.154 46.06C274.154 48.6309 276.238 50.715 278.809 50.715Z" fill="black"/>
<path d="M278.809 60.025C281.38 60.025 283.464 57.9409 283.464 55.37C283.464 52.7991 281.38 50.715 278.809 50.715C276.238 50.715 274.154 52.7991 274.154 55.37C274.154 57.9409 276.238 60.025 278.809 60.025Z" fill="black"/>
<path d="M278.809 69.335C281.38 69.335 283.464 67.2509 283.464 64.68C283.464 62.1091 281.38 60.025 278.809 60.025C276.238 60.025 274.154 62.1091 274.154 64.68C274.154 67.2509 276.238 69.335 278.809 69.335Z" fill="black"/>
<path d="M278.809 78.645C281.38 78.645 283.464 76.5608 283.464 73.99C283.464 71.4191 281.38 69.335 278.809 69.335C276.238 69.335 274.154 71.4191 274.154 73.99C274.154 76.5608 276.238 78.645 278.809 78.645Z" fill="black"/>
<path d="M241.571 41.405C244.142 41.405 246.226 39.3209 246.226 36.75C246.226 34.1791 244.142 32.095 241.571 32.095C239 32.095 236.916 34.1791 236.916 36.75C236.916 39.3209 239 41.405 241.571 41.405Z" fill="black"/>
<path d="M241.571 50.715C244.142 50.715 246.226 48.6309 246.226 46.06C246.226 43.4891 244.142 41.405 241.571 41.405C239 41.405 236.916 43.4891 236.916 46.06C236.916 48.6309 239 50.715 241.571 50.715Z" fill="black"/>
<path d="M241.571 60.025C244.142 60.025 246.226 57.9409 246.226 55.37C246.226 52.7991 244.142 50.715 241.571 50.715C239 50.715 236.916 52.7991 236.916 55.37C236.916 57.9409 239 60.025 241.571 60.025Z" fill="black"/>
<path d="M250.882 41.405C253.452 41.405 255.537 39.3209 255.537 36.75C255.537 34.1791 253.452 32.095 250.882 32.095C248.311 32.095 246.227 34.1791 246.227 36.75C246.227 39.3209 248.311 41.405 250.882 41.405Z" fill="black"/>
<path d="M250.882 50.715C253.452 50.715 255.537 48.6309 255.537 46.06C255.537 43.4891 253.452 41.405 250.882 41.405C248.311 41.405 246.227 43.4891 246.227 46.06C246.227 48.6309 248.311 50.715 250.882 50.715Z" fill="black"/>
<path d="M250.882 60.025C253.452 60.025 255.537 57.9409 255.537 55.37C255.537 52.7991 253.452 50.715 250.882 50.715C248.311 50.715 246.227 52.7991 246.227 55.37C246.227 57.9409 248.311 60.025 250.882 60.025Z" fill="black"/>
<path d="M260.19 41.405C262.761 41.405 264.845 39.3209 264.845 36.75C264.845 34.1791 262.761 32.095 260.19 32.095C257.619 32.095 255.535 34.1791 255.535 36.75C255.535 39.3209 257.619 41.405 260.19 41.405Z" fill="black"/>
<path d="M260.19 50.715C262.761 50.715 264.845 48.6309 264.845 46.06C264.845 43.4891 262.761 41.405 260.19 41.405C257.619 41.405 255.535 43.4891 255.535 46.06C255.535 48.6309 257.619 50.715 260.19 50.715Z" fill="black"/>
<path d="M260.19 60.025C262.761 60.025 264.845 57.9409 264.845 55.37C264.845 52.7991 262.761 50.715 260.19 50.715C257.619 50.715 255.535 52.7991 255.535 55.37C255.535 57.9409 257.619 60.025 260.19 60.025Z" fill="black"/>
<path d="M18.1296 227.605C20.7005 227.605 22.7846 225.521 22.7846 222.95C22.7846 220.379 20.7005 218.295 18.1296 218.295C15.5587 218.295 13.4746 220.379 13.4746 222.95C13.4746 225.521 15.5587 227.605 18.1296 227.605Z" fill="black"/>
<path d="M18.1296 236.915C20.7005 236.915 22.7846 234.831 22.7846 232.26C22.7846 229.689 20.7005 227.605 18.1296 227.605C15.5587 227.605 13.4746 229.689 13.4746 232.26C13.4746 234.831 15.5587 236.915 18.1296 236.915Z" fill="black"/>
<path d="M18.1296 246.225C20.7005 246.225 22.7846 244.141 22.7846 241.57C22.7846 238.999 20.7005 236.915 18.1296 236.915C15.5587 236.915 13.4746 238.999 13.4746 241.57C13.4746 244.141 15.5587 246.225 18.1296 246.225Z" fill="black"/>
<path d="M18.1296 255.535C20.7005 255.535 22.7846 253.451 22.7846 250.88C22.7846 248.309 20.7005 246.225 18.1296 246.225C15.5587 246.225 13.4746 248.309 13.4746 250.88C13.4746 253.451 15.5587 255.535 18.1296 255.535Z" fill="black"/>
<path d="M18.1296 264.845C20.7005 264.845 22.7846 262.761 22.7846 260.19C22.7846 257.619 20.7005 255.535 18.1296 255.535C15.5587 255.535 13.4746 257.619 13.4746 260.19C13.4746 262.761 15.5587 264.845 18.1296 264.845Z" fill="black"/>
<path d="M18.1296 274.155C20.7005 274.155 22.7846 272.071 22.7846 269.5C22.7846 266.929 20.7005 264.845 18.1296 264.845C15.5587 264.845 13.4746 266.929 13.4746 269.5C13.4746 272.071 15.5587 274.155 18.1296 274.155Z" fill="black"/>
<path d="M18.1296 283.465C20.7005 283.465 22.7846 281.381 22.7846 278.81C22.7846 276.239 20.7005 274.155 18.1296 274.155C15.5587 274.155 13.4746 276.239 13.4746 278.81C13.4746 281.381 15.5587 283.465 18.1296 283.465Z" fill="black"/>
<path d="M27.4402 227.605C30.011 227.605 32.0952 225.521 32.0952 222.95C32.0952 220.379 30.011 218.295 27.4402 218.295C24.8693 218.295 22.7852 220.379 22.7852 222.95C22.7852 225.521 24.8693 227.605 27.4402 227.605Z" fill="black"/>
<path d="M27.4402 283.465C30.011 283.465 32.0952 281.381 32.0952 278.81C32.0952 276.239 30.011 274.155 27.4402 274.155C24.8693 274.155 22.7852 276.239 22.7852 278.81C22.7852 281.381 24.8693 283.465 27.4402 283.465Z" fill="black"/>
<path d="M36.7487 227.605C39.3196 227.605 41.4037 225.521 41.4037 222.95C41.4037 220.379 39.3196 218.295 36.7487 218.295C34.1779 218.295 32.0938 220.379 32.0938 222.95C32.0938 225.521 34.1779 227.605 36.7487 227.605Z" fill="black"/>
<path d="M36.7487 283.465C39.3196 283.465 41.4037 281.381 41.4037 278.81C41.4037 276.239 39.3196 274.155 36.7487 274.155C34.1779 274.155 32.0938 276.239 32.0938 278.81C32.0938 281.381 34.1779 283.465 36.7487 283.465Z" fill="black"/>
<path d="M46.0593 227.605C48.6302 227.605 50.7143 225.521 50.7143 222.95C50.7143 220.379 48.6302 218.295 46.0593 218.295C43.4884 218.295 41.4043 220.379 41.4043 222.95C41.4043 225.521 43.4884 227.605 46.0593 227.605Z" fill="black"/>
<path d="M46.0593 283.465C48.6302 283.465 50.7143 281.381 50.7143 278.81C50.7143 276.239 48.6302 274.155 46.0593 274.155C43.4884 274.155 41.4043 276.239 41.4043 278.81C41.4043 281.381 43.4884 283.465 46.0593 283.465Z" fill="black"/>
<path d="M55.3698 227.605C57.9407 227.605 60.0248 225.521 60.0248 222.95C60.0248 220.379 57.9407 218.295 55.3698 218.295C52.799 218.295 50.7148 220.379 50.7148 222.95C50.7148 225.521 52.799 227.605 55.3698 227.605Z" fill="black"/>
<path d="M55.3698 283.465C57.9407 283.465 60.0248 281.381 60.0248 278.81C60.0248 276.239 57.9407 274.155 55.3698 274.155C52.799 274.155 50.7148 276.239 50.7148 278.81C50.7148 281.381 52.799 283.465 55.3698 283.465Z" fill="black"/>
<path d="M64.6804 227.605C67.2513 227.605 69.3354 225.521 69.3354 222.95C69.3354 220.379 67.2513 218.295 64.6804 218.295C62.1095 218.295 60.0254 220.379 60.0254 222.95C60.0254 225.521 62.1095 227.605 64.6804 227.605Z" fill="black"/>
<path d="M64.6804 283.465C67.2513 283.465 69.3354 281.381 69.3354 278.81C69.3354 276.239 67.2513 274.155 64.6804 274.155C62.1095 274.155 60.0254 276.239 60.0254 278.81C60.0254 281.381 62.1095 283.465 64.6804 283.465Z" fill="black"/>
<path d="M73.989 227.605C76.5599 227.605 78.644 225.521 78.644 222.95C78.644 220.379 76.5599 218.295 73.989 218.295C71.4181 218.295 69.334 220.379 69.334 222.95C69.334 225.521 71.4181 227.605 73.989 227.605Z" fill="black"/>
<path d="M73.989 236.915C76.5599 236.915 78.644 234.831 78.644 232.26C78.644 229.689 76.5599 227.605 73.989 227.605C71.4181 227.605 69.334 229.689 69.334 232.26C69.334 234.831 71.4181 236.915 73.989 236.915Z" fill="black"/>
<path d="M73.989 246.225C76.5599 246.225 78.644 244.141 78.644 241.57C78.644 238.999 76.5599 236.915 73.989 236.915C71.4181 236.915 69.334 238.999 69.334 241.57C69.334 244.141 71.4181 246.225 73.989 246.225Z" fill="black"/>
<path d="M73.989 255.535C76.5599 255.535 78.644 253.451 78.644 250.88C78.644 248.309 76.5599 246.225 73.989 246.225C71.4181 246.225 69.334 248.309 69.334 250.88C69.334 253.451 71.4181 255.535 73.989 255.535Z" fill="black"/>
<path d="M73.989 264.845C76.5599 264.845 78.644 262.761 78.644 260.19C78.644 257.619 76.5599 255.535 73.989 255.535C71.4181 255.535 69.334 257.619 69.334 260.19C69.334 262.761 71.4181 264.845 73.989 264.845Z" fill="black"/>
<path d="M73.989 274.155C76.5599 274.155 78.644 272.071 78.644 269.5C78.644 266.929 76.5599 264.845 73.989 264.845C71.4181 264.845 69.334 266.929 69.334 269.5C69.334 272.071 71.4181 274.155 73.989 274.155Z" fill="black"/>
<path d="M73.989 283.465C76.5599 283.465 78.644 281.381 78.644 278.81C78.644 276.239 76.5599 274.155 73.989 274.155C71.4181 274.155 69.334 276.239 69.334 278.81C69.334 281.381 71.4181 283.465 73.989 283.465Z" fill="black"/>
<path d="M36.7507 246.225C39.3216 246.225 41.4057 244.141 41.4057 241.57C41.4057 238.999 39.3216 236.915 36.7507 236.915C34.1798 236.915 32.0957 238.999 32.0957 241.57C32.0957 244.141 34.1798 246.225 36.7507 246.225Z" fill="black"/>
<path d="M36.7507 255.535C39.3216 255.535 41.4057 253.451 41.4057 250.88C41.4057 248.309 39.3216 246.225 36.7507 246.225C34.1798 246.225 32.0957 248.309 32.0957 250.88C32.0957 253.451 34.1798 255.535 36.7507 255.535Z" fill="black"/>
<path d="M36.7507 264.845C39.3216 264.845 41.4057 262.761 41.4057 260.19C41.4057 257.619 39.3216 255.535 36.7507 255.535C34.1798 255.535 32.0957 257.619 32.0957 260.19C32.0957 262.761 34.1798 264.845 36.7507 264.845Z" fill="black"/>
<path d="M46.0612 246.225C48.6321 246.225 50.7162 244.141 50.7162 241.57C50.7162 238.999 48.6321 236.915 46.0612 236.915C43.4904 236.915 41.4062 238.999 41.4062 241.57C41.4062 244.141 43.4904 246.225 46.0612 246.225Z" fill="black"/>
<path d="M46.0612 255.535C48.6321 255.535 50.7162 253.451 50.7162 250.88C50.7162 248.309 48.6321 246.225 46.0612 246.225C43.4904 246.225 41.4062 248.309 41.4062 250.88C41.4062 253.451 43.4904 255.535 46.0612 255.535Z" fill="black"/>
<path d="M46.0612 264.845C48.6321 264.845 50.7162 262.761 50.7162 260.19C50.7162 257.619 48.6321 255.535 46.0612 255.535C43.4904 255.535 41.4062 257.619 41.4062 260.19C41.4062 262.761 43.4904 264.845 46.0612 264.845Z" fill="black"/>
<path d="M55.3698 246.225C57.9407 246.225 60.0248 244.141 60.0248 241.57C60.0248 238.999 57.9407 236.915 55.3698 236.915C52.799 236.915 50.7148 238.999 50.7148 241.57C50.7148 244.141 52.799 246.225 55.3698 246.225Z" fill="black"/>
<path d="M55.3698 255.535C57.9407 255.535 60.0248 253.451 60.0248 250.88C60.0248 248.309 57.9407 246.225 55.3698 246.225C52.799 246.225 50.7148 248.309 50.7148 250.88C50.7148 253.451 52.799 255.535 55.3698 255.535Z" fill="black"/>
<path d="M55.3698 264.845C57.9407 264.845 60.0248 262.761 60.0248 260.19C60.0248 257.619 57.9407 255.535 55.3698 255.535C52.799 255.535 50.7148 257.619 50.7148 260.19C50.7148 262.761 52.799 264.845 55.3698 264.845Z" fill="black"/>
<defs>
<linearGradient id="paint0_linear_236_3223" x1="13.4746" y1="148.47" x2="283.465" y2="148.47" gradientUnits="userSpaceOnUse">
<stop stop-color="#005187"/>
<stop offset="1" stop-color="#0070A7"/>
</linearGradient>
</defs>
</svg>
