<svg width="176" height="36" viewBox="0 0 176 36" fill="none" xmlns="http://www.w3.org/2000/svg">
<rect x="0.889526" width="36" height="36" rx="4" fill="white"/>
<path d="M11.9715 27.2933L11.9764 27.2994L11.9816 27.3052C12.5787 27.9624 13.6487 28.25 15.0936 28.25C16.3325 28.25 17.6803 27.8434 19.1323 27.0526C20.6093 26.2669 22.0672 25.3114 23.5058 24.1868L23.5064 24.1864C24.9683 23.037 26.2755 21.9371 27.4275 20.8868C27.5191 20.8215 27.5841 20.7308 27.6163 20.6213C27.6466 20.5183 27.6444 20.4111 27.626 20.3087C27.6215 20.1907 27.5863 20.0634 27.4853 19.9653C27.3781 19.8612 27.239 19.8312 27.1151 19.8312C26.9109 19.8312 26.7294 19.9562 26.5802 20.1C25.5751 20.9749 24.483 21.8671 23.3037 22.7767L23.3037 22.7766L23.3009 22.7789C22.1599 23.6855 21.0561 24.439 19.9896 25.0405C18.9565 25.6089 18.1482 25.8718 17.5502 25.8718C17.2544 25.8718 17.0734 25.7844 16.9591 25.6456C16.8372 25.4975 16.7548 25.2478 16.7548 24.8528C16.7548 24.2798 16.8863 23.5638 17.1599 22.699C17.4695 21.8312 17.8656 20.9111 18.349 19.9387C18.833 18.965 19.3512 18.0423 19.9036 17.1705C20.4886 16.2683 21.0692 15.54 21.6444 14.9814L21.6572 14.9689L21.6681 14.9548C21.749 14.85 21.8104 14.7043 21.7623 14.5411C21.7203 14.3983 21.6108 14.3029 21.5058 14.2391C21.2661 14.0601 20.9241 13.9937 20.5294 13.9937C20.2547 13.9937 19.9175 14.0502 19.5246 14.1543C19.1134 14.2632 18.5885 14.4937 17.9563 14.8347C17.3311 15.1566 16.6315 15.718 15.8582 16.5028C15.0909 17.2481 14.2715 18.0608 13.4002 18.9409L13.4001 18.9408L13.3966 18.9445C12.5693 19.815 11.7079 20.6183 10.8126 21.3545C10.4149 21.6371 10.1395 21.9713 10.1395 22.3655C10.1395 22.4781 10.1617 22.609 10.2488 22.7148C10.3436 22.8298 10.4762 22.8693 10.5986 22.8693C10.783 22.8693 10.9416 22.782 11.0715 22.6606C11.4121 22.4186 11.8265 22.0782 12.3134 21.6422C12.2198 21.7778 12.1348 21.9075 12.0585 22.031L12.0584 22.031L12.0557 22.0357C11.904 22.2935 11.7235 22.7176 11.5144 23.293C11.2943 23.8639 11.1849 24.4691 11.1849 25.1066C11.1849 25.9108 11.45 26.6422 11.9715 27.2933ZM21.7978 12.1157C22.1008 12.494 22.5476 12.6662 23.0905 12.6662C23.9351 12.6662 24.6929 12.3094 25.3578 11.6288C26.0516 10.9541 26.4243 10.2172 26.4243 9.42132C26.4243 9.0176 26.2773 8.64237 26.0036 8.30058C25.7006 7.92223 25.2537 7.75 24.7108 7.75C23.8945 7.75 23.1376 8.12949 22.4437 8.83811C21.7527 9.50991 21.377 10.2297 21.377 10.9949C21.377 11.3986 21.524 11.7739 21.7978 12.1157Z" fill="#3A7BD5" stroke="#3A7BD5" stroke-width="0.5"/>
<path fill-rule="evenodd" clip-rule="evenodd" d="M83.5117 17.9925C83.5117 27.6925 69.1517 27.6925 69.1517 17.9925C69.1517 8.31254 83.5117 8.31254 83.5117 17.9925ZM72.8317 17.9925C72.8317 23.0725 79.8517 23.0725 79.8517 17.9925C79.8517 12.9525 72.8317 12.9525 72.8317 17.9925ZM176 17.9925C176 27.6925 161.64 27.6925 161.64 17.9925C161.64 8.31254 176 8.31254 176 17.9925ZM165.32 17.9925C165.32 23.0725 172.34 23.0725 172.34 17.9925C172.34 12.9525 165.32 12.9525 165.32 17.9925ZM153.656 20.4325H158.156V17.2325H153.656V14.1725H158.736V10.9725H150.016V24.9725H153.656V20.4325ZM144.17 24.9926L137.11 18.0926V24.9726H133.41V10.9126H134.71L141.79 17.8326V10.9726H145.45V24.9926H144.17ZM130.069 21.8325H128.289V14.0925H129.929V10.9725H123.109V14.0925H124.749V21.8325H122.969V24.9725H130.069V21.8325ZM111.717 20.0125L114.457 24.4525V24.9725H110.457L108.057 20.8525H106.197V24.9725H102.617V10.9725H108.757C114.257 10.9925 115.257 17.6125 111.717 20.0125ZM108.757 17.6325C110.697 17.6325 110.797 14.1925 108.757 14.1725C108.195 14.1592 107.616 14.1637 107.043 14.1681C106.758 14.1703 106.475 14.1725 106.197 14.1725V17.6325H108.757ZM94.7431 20.2525C94.7431 21.3925 93.6631 21.9525 92.6231 21.9525C91.5831 21.9525 90.4831 21.3925 90.4831 20.2525V10.9725H87.0631V20.3125C87.0631 23.3925 89.7631 25.1725 92.6231 25.1725C95.5031 25.1725 98.2031 23.3925 98.2031 20.3125V10.9725H94.7431V20.2525ZM56.8895 14.1725H60.3295V24.9725H63.8695V14.1725H67.2895V10.9725H56.8895V14.1725Z" fill="white"/>
</svg>
